ply
format ascii 1.0
comment Created in Blender version 4.0.1
element vertex 10
property float x
property float y
property float z
property float nx
property float ny
property float nz
property float s
property float t
element face 14
property list uchar uint vertex_indices
end_header
0.037608765 0.033040103 0.07354064 2.6635776 1.0038267 2.4894724 0 1
-0.037608765 -0.033040103 -0.07354064 -1.1713767 -2.5863254 -2.5043483 1 0
0.037608765 0.033040103 -0.07354064 2.6635776 1.0038271 -2.4894724 0 0
-0.03757106 0.033040106 -0.07354064 -1.9600031 1.9611216 -2.635687 0 0
-0.03757106 0.033040106 0.07354064 -1.9600018 1.9611218 2.635688 0 1
-0.037608765 -0.033040103 0.07354064 -1.1713789 -2.5863247 2.5043478 1 1
-0.03757806 0.020762928 -0.063048206 -3.3958812 0.0019378662 2.982872e-07 0 0
-0.03760176 -0.020762946 0.063048206 -3.3958812 0.0019379854 3.0548196e-07 1 1
-0.03757806 0.020762928 0.063048206 -3.3958812 0.0019366741 3.4244945e-08 0 1
-0.03760176 -0.020762946 -0.063048206 -3.3958812 0.0019379854 0 1 0
3 0 1 2
3 3 0 2
3 0 4 5
3 2 1 3
3 6 4 3
3 7 1 5
3 8 5 4
3 1 6 3
3 0 5 1
3 3 4 0
3 6 8 4
3 7 9 1
3 8 7 5
3 1 9 6
