ply
format ascii 1.0
comment Created in Blender version 4.0.1
element vertex 20
property float x
property float y
property float z
property float nx
property float ny
property float nz
property float s
property float t
element face 28
property list uchar uint vertex_indices
end_header
0.054440666 0.024130475 -0.017688844 2.1283062 2.5542347 -0.69152844 0 0
0.061613582 0 0.020019466 3.082614 1.0130628 1.0016023 0 0
0.061613582 0 -0.020019466 3.0826137 1.0130628 -1.0016023 0 0
-2.5542113e-10 0.024130475 0.057242304 -1.2787775e-08 2.5542347 2.237833 0 0
-0.038079288 0 0.052411646 -1.9051602 1.0130622 2.6222284 0 0
0 0 0.064784355 -3.5834212e-08 1.0130621 3.2412524 0 0
-0.061613582 0 -0.020019466 -3.082614 1.0130627 -1.0016022 0 0
-0.033646185 0.024130475 -0.04631 -1.3153653 2.5542347 -1.8104447 0 0
-0.038079288 0 -0.052411646 -1.9051604 1.0130621 -2.6222284 0 0
0.03364618 0.024130475 -0.04631 1.3153648 2.5542347 -1.8104447 0 0
0.038079288 0 -0.052411646 1.9051601 1.0130622 -2.6222284 0 0
0.03364618 0.024130475 0.04631 1.315365 2.5542347 1.8104452 0 0
0.038079288 0 0.052411646 1.9051602 1.0130622 2.6222284 0 0
-0.054440666 0.024130475 0.017688844 -2.1283054 2.554235 0.69152844 0 0
-0.061613582 0 0.020019466 -3.082614 1.0130628 1.0016024 0 0
-2.5542113e-10 0.024130475 -0.057242304 6.598226e-08 2.5542347 -2.2378328 0 0
0 0 -0.064784355 3.583421e-08 1.013062 -3.2412524 0 0
0.054440666 0.024130475 0.017688844 2.1283052 2.5542352 0.6915286 0 0
-0.033646185 0.024130475 0.04631 -1.3153653 2.5542347 1.8104447 0 0
-0.054440666 0.024130475 -0.017688844 -2.128306 2.5542347 -0.69152844 0 0
3 0 1 2
3 3 4 5
3 6 7 8
3 9 2 10
3 11 5 12
3 13 6 14
3 15 10 16
3 17 12 1
3 4 13 14
3 7 16 8
3 9 13 3
3 0 17 1
3 3 18 4
3 6 19 7
3 9 0 2
3 11 3 5
3 13 19 6
3 15 9 10
3 17 11 12
3 4 18 13
3 7 15 16
3 3 11 17
3 17 0 9
3 9 15 7
3 7 19 13
3 13 18 3
3 3 17 9
3 9 7 13
