ply
format ascii 1.0
comment Created in Blender version 4.0.1
element vertex 200
property float x
property float y
property float z
property float nx
property float ny
property float nz
property float s
property float t
element face 392
property list uchar uint vertex_indices
end_header
-0.039820928 0.026970208 -0.08503758 -4.414813 -0.64337647 1.0858388 0 0
0.02187378 -0.013401678 -0.13860564 0.10978711 -3.6041913 -2.842763 0 0
0.036437925 -0.022932187 -0.08503758 1.1778995 -4.3031454 1.0858388 0 0
0.08109653 0.04531331 -0.11464927 4.4148126 0.6433743 -1.0858393 0 0
0.066604964 0.054796346 -0.09066474 -0.29923034 4.496363 -0.8813215 0 0
0.08109653 0.04531331 -0.08503758 4.414813 0.64337337 1.0858388 0 0
0.036437925 -0.022932187 -0.11464927 1.1779002 -4.303145 -1.0858386 0 0
-0.0016915016 0.0020190096 -0.051930714 -1.6184566 -2.4732606 3.513848 0 0
0.019401819 0.08568519 -0.061081223 -0.10978842 3.6041899 2.8427644 0 0
-0.025256783 0.017439697 -0.061081223 -3.3466997 -1.3423299 2.8427637 0 0
-0.039820928 0.026970208 -0.11464927 -4.4148126 -0.643376 -1.0858387 0 0
0.019401819 0.08568519 -0.13860564 -0.109788656 3.6041903 -2.842764 0 0
-0.025256783 0.017439697 -0.13860564 -3.3467002 -1.3423296 -2.842763 0 0
0.02187378 -0.013401678 -0.061081223 0.10978663 -3.6041913 2.8427637 0 0
0.0429671 0.0702645 -0.051930714 1.6184558 2.473259 3.5138497 0 0
0.004837673 0.09521571 -0.11464927 -1.1779022 4.3031445 -1.085839 0 0
-0.0016915016 0.0020190096 -0.14775616 -1.6184566 -2.4732606 -3.5138485 0 0
0.06653238 0.05484382 -0.13860564 3.3466997 1.3423276 -2.8427641 0 0
0.06653238 0.05484382 -0.061081223 3.3466992 1.3423275 2.8427641 0 0
0.004837673 0.09521571 -0.08503758 -1.1779022 4.3031445 1.085839 0 0
0.0429671 0.0702645 -0.14775616 1.6184558 2.4732587 -3.5138495 0 0
0.019329283 0.08573268 -0.10902211 4.2400966 1.5259115 0.88132125 0 0
0.012195909 0.0551259 -0.12387355 3.3467002 1.3423316 2.8427606 0 0
0.028358135 0.079824366 -0.12387355 3.3731618 2.0932178 2.3073294 0 0
0.028358135 0.079824366 -0.0758133 3.3731625 2.093216 -2.307329 0 0
0.057576112 0.06070466 -0.12387355 0.56770456 3.9290576 2.3073292 0 0
0.066604964 0.054796346 -0.10902211 -0.29923153 4.4963636 0.8813216 0 0
0.042967126 0.07026451 -0.07014056 1.9704332 3.0111375 -2.852016 0 0
0.042967126 0.07026451 -0.12954628 1.9704325 3.0111372 2.852016 0 0
0.057576112 0.06070466 -0.0758133 0.5677035 3.9290571 -2.3073294 0 0
0.019329283 0.08573268 -0.09066474 4.240097 1.5259099 -0.88132167 0 0
0.05044274 0.03009788 -0.10902211 -1.177896 4.3031464 1.0858381 0 0
0.03989478 0.037000276 -0.12137477 3.3894079 2.0458744 -2.3259113 0 0
0.047984764 0.03170634 -0.10806767 4.2430205 1.5300177 -0.8598701 0 0
0.026804898 0.04556605 -0.07014056 1.618459 2.4732623 -3.5138462 0 0
0.0031670574 0.061034217 -0.10902211 4.414812 0.6433797 1.0858378 0 0
0.041413885 0.036006194 -0.12387355 -0.109784484 3.604193 2.8427608 0 0
0.041413885 0.036006194 -0.0758133 -0.10978389 3.6041927 -2.842761 0 0
0.0031670574 0.061034217 -0.09066474 4.4148116 0.64338243 -1.0858386 0 0
0.026804898 0.04556605 -0.12954628 1.6184573 2.4732635 3.5138457 0 0
0.05044274 0.03009788 -0.09066474 -1.1778955 4.303146 -1.0858384 0 0
0.012195909 0.0551259 -0.0758133 3.3467011 1.3423321 -2.8427603 0 0
0.013715039 0.054131817 -0.12137477 0.5570266 3.9535222 -2.2678037 0 0
0.05725251 0.08872694 -0.12787248 1.5687906 2.9354644 -3.1631465 0 0
0.02680491 0.04556605 -0.12645763 1.9386646 2.991252 -2.8943982 0 0
0.02680491 0.04556605 -0.07322922 1.9870459 3.052335 2.7961488 0 0
0.0056250524 0.059425756 -0.091619186 -0.1582756 4.511634 0.8388459 0 0
0.0056250524 0.059425756 -0.10806767 -0.19373631 4.5130887 -0.8234339 0 0
0.03989478 0.037000276 -0.078312084 3.3721256 2.140453 2.265122 0 0
0.047984764 0.03170634 -0.091619186 4.2205853 1.5783584 0.8826056 0 0
0.013715039 0.054131817 -0.078312084 0.6352347 3.9667454 2.2237263 0 0
0.07042383 0.06711225 -0.09303403 4.372235 0.97564995 1.0075799 0 0
0.07042383 0.06711225 -0.10948251 4.456571 0.6165185 -0.91783845 0 0
0.07042383 0.06711225 -0.09303403 4.349992 1.01604 1.0624434 0 0
0.05725251 0.08872694 -0.07464407 1.6565894 2.9465847 3.107555 0 0
0.04911219 0.10208554 -0.07972693 0.25634825 3.9861672 2.2645764 0 0
0.04911219 0.10208554 -0.12278962 0.20047808 3.9768012 -2.286572 0 0
0.07042383 0.06711225 -0.10948251 4.365397 0.9476273 -1.0624801 0 0
0.06539283 0.07536833 -0.07972693 3.325018 1.7254877 2.655277 0 0
0.044081185 0.11034161 -0.09303403 -0.4446802 4.501091 0.791193 0 0
0.044081185 0.11034161 -0.10948251 -0.46082866 4.49582 -0.8116565 0 0
0.06539283 0.07536833 -0.12278962 3.2690048 1.6910956 -2.7454236 0 0
0.04911219 0.10208554 -0.07972693 1.027782 3.857578 2.268547 0 0
0.08527526 0.11245954 -0.08215538 0.35229555 0.30528426 4.5679574 0 0
0.08113255 0.12754446 -0.08723824 -0.979252 2.6966298 3.5850804 0 0
0.05725251 0.08872694 -0.07464407 2.3061173 2.8475113 2.7671378 0 0
0.044081185 0.11034161 -0.10948251 -0.20342803 4.519459 -0.78527814 0 0
0.04911219 0.10208554 -0.12278962 0.16333151 3.8611176 -2.4796457 0 0
0.06539283 0.07536833 -0.12278962 3.3043752 1.162044 -2.9688904 0 0
0.06539283 0.07536833 -0.07972693 3.5259237 1.8259276 2.305949 0 0
0.044081185 0.11034161 -0.09303403 0.11850846 4.4936075 0.9364816 0 0
0.05725251 0.08872694 -0.12787248 1.411498 2.576832 -3.5286195 0 0
0.07857224 0.13686746 -0.11699382 -1.9129142 3.9345098 -1.3942542 0 0
0.11875668 0.1361895 -0.13030094 -0.021732807 2.8452225 -3.6038573 0 0
0.08113255 0.12754446 -0.13030094 -1.5025606 2.4177046 -3.6028552 0 0
0.091978244 0.08805158 -0.11699382 2.2081563 -3.7153602 -1.5503861 0 0
0.089417934 0.097374596 -0.08723824 1.800609 -2.1311455 3.6468582 0 0
0.07857224 0.13686746 -0.10054534 -1.7526655 4.0454445 1.2830011 0 0
0.089417934 0.097374596 -0.13030094 0.8995499 -2.4014785 -3.8088398 0 0
0.091978244 0.08805158 -0.10054534 2.5811346 -3.5656085 1.306802 0 0
0.08527526 0.11245954 -0.1353838 -0.52842903 -0.0015185624 -4.561174 0 0
0.11278197 0.1054784 -0.08723824 0.2230593 -2.5948877 3.7815804 0 0
0.12678224 0.09408212 -0.10054534 1.7813917 -4.110792 1.0057758 0 0
0.13137862 0.10258785 -0.08723823 2.0453482 -3.0780287 2.7250397 0 0
0.11093567 0.09598814 -0.11699382 0.6207956 -4.307151 -1.4651326 0 0
0.11576931 0.12083395 -0.08215537 -0.033250652 0.19863078 4.5872636 0 0
0.12060295 0.14567974 -0.11699382 0.06738174 4.3899617 -1.3443384 0 0
0.11278197 0.1054784 -0.13030094 0.22306144 -2.5948868 -3.7815807 0 0
0.11093567 0.09598814 -0.10054534 0.62079513 -4.3071504 1.4651339 0 0
0.11875668 0.1361895 -0.08723824 -0.021735668 2.84522 3.603859 0 0
0.12060295 0.14567974 -0.10054534 0.06737912 4.3899612 1.34434 0 0
0.11576931 0.12083395 -0.1353838 -0.033248417 0.1986331 -4.5872636 0 0
0.13137862 0.10258785 -0.13030094 2.045348 -3.0780292 -2.725039 0 0
0.15084907 0.13861865 -0.10054534 3.9526172 2.043028 1.1341972 0 0
0.13881567 0.116350375 -0.08215537 2.6727486 -1.2155584 3.5302095 0 0
0.1462527 0.13011292 -0.08723823 3.4385943 0.77702427 2.942083 0 0
0.13881567 0.116350375 -0.1353838 2.6727505 -1.2155619 -3.5302072 0 0
0.1462527 0.13011292 -0.13030094 3.4385953 0.77702224 -2.942082 0 0
0.12678224 0.09408212 -0.11699382 1.7813911 -4.110792 -1.0057752 0 0
0.15084907 0.13861865 -0.11699382 3.9526186 2.043025 -1.1341977 0 0
0.021873819 -0.01340172 0.14209269 0.10978699 -3.6041913 2.842763 0 0
-0.0398209 0.02697017 0.08852465 -4.414813 -0.64337623 -1.0858393 0 0
-0.0016914655 0.0020189702 0.05541777 -1.6184567 -2.4732609 -3.513848 0 0
0.081096575 0.04531327 0.08852465 4.414812 0.6433741 -1.0858394 0 0
0.06660501 0.054796305 0.112509176 -0.29922915 4.4963636 -0.88132167 0 0
0.081096575 0.04531327 0.11813634 4.4148126 0.64337397 1.0858396 0 0
0.036437966 -0.022932231 0.11813634 1.1779 -4.303145 1.0858389 0 0
0.036437966 -0.022932231 0.08852465 1.1778998 -4.303145 -1.085839 0 0
0.01940186 0.08568516 0.06456828 -0.10978842 3.6041903 -2.8427641 0 0
-0.02525675 0.01743966 0.06456828 -3.3466992 -1.3423297 -2.8427632 0 0
0.01940186 0.08568516 0.14209269 -0.10978842 3.60419 2.8427646 0 0
-0.0398209 0.02697017 0.11813634 -4.414813 -0.6433759 1.0858392 0 0
-0.02525675 0.01743966 0.14209269 -3.3466995 -1.3423296 2.8427637 0 0
0.04296714 0.070264466 0.05541777 1.6184554 2.4732592 -3.5138493 0 0
0.021873819 -0.01340172 0.06456828 0.10978675 -3.6041908 -2.842763 0 0
0.0048377104 0.09521567 0.11813634 -1.1779009 4.3031445 1.0858399 0 0
0.066532426 0.05484378 0.14209269 3.3466988 1.3423282 2.8427644 0 0
-0.0016914655 0.0020189702 0.15124321 -1.6184561 -2.4732602 3.5138485 0 0
0.066532426 0.05484378 0.06456828 3.346699 1.3423283 -2.8427641 0 0
0.0048377104 0.09521567 0.08852465 -1.1779014 4.303144 -1.0858394 0 0
0.04296714 0.070264466 0.15124321 1.6184549 2.4732592 3.5138497 0 0
0.01219595 0.055125866 0.12736061 3.3467007 1.3423327 -2.8427608 0 0
0.019329323 0.08573265 0.112509176 4.2400966 1.5259105 -0.8813214 0 0
0.028358176 0.07982433 0.12736061 3.3731618 2.0932174 -2.3073292 0 0
0.028358176 0.07982433 0.07930036 3.3731618 2.0932178 2.3073294 0 0
0.057576153 0.060704622 0.12736061 0.56770384 3.9290576 -2.3073294 0 0
0.042967167 0.07026447 0.07362762 1.970433 3.011137 2.8520157 0 0
0.042967167 0.07026447 0.13303337 1.970433 3.0111384 -2.8520153 0 0
0.057576153 0.060704622 0.07930036 0.56770504 3.9290571 2.3073294 0 0
0.019329323 0.08573265 0.094151795 4.2400966 1.5259118 0.8813215 0 0
0.04798481 0.031706303 0.111554734 4.243021 1.5300163 0.85986996 0 0
0.04141393 0.036006156 0.12736061 -0.10978329 3.6041932 -2.8427606 0 0
0.05044278 0.03009784 0.112509176 -1.1778957 4.3031464 -1.0858382 0 0
0.026804939 0.04556601 0.07362762 1.6184583 2.4732625 3.5138452 0 0
0.0031670947 0.06103418 0.112509176 4.414812 0.6433791 -1.0858377 0 0
0.05044278 0.03009784 0.094151795 -1.1778958 4.3031464 1.0858384 0 0
0.06660501 0.054796305 0.094151795 -0.29922926 4.4963636 0.8813216 0 0
0.0031670947 0.06103418 0.094151795 4.414812 0.64337826 1.0858378 0 0
0.026804939 0.04556601 0.13303337 1.6184572 2.4732628 -3.5138462 0 0
0.01219595 0.055125866 0.07930036 3.3466997 1.342333 2.8427613 0 0
0.057252556 0.08872691 0.13135953 1.5689489 2.9356608 3.1628861 0 0
0.013715079 0.054131784 0.124861844 0.5570251 3.9535222 2.2678032 0 0
0.02680495 0.045566015 0.12994468 1.9386642 2.9912505 2.8944004 0 0
0.02680495 0.045566015 0.07671628 1.9870455 3.0523348 -2.7961497 0 0
0.04141393 0.036006156 0.07930036 -0.109781265 3.6041925 2.8427622 0 0
0.0056250934 0.059425723 0.095106244 -0.15827131 4.511634 -0.83884615 0 0
0.03989482 0.037000243 0.081799135 3.3721263 2.1404533 -2.265121 0 0
0.04798481 0.031706303 0.095106244 4.2205853 1.5783598 -0.8826055 0 0
0.013715079 0.054131784 0.081799135 0.6352333 3.966746 -2.223725 0 0
0.0056250934 0.059425723 0.111554734 -0.1937375 4.5130887 0.8234339 0 0
0.07042388 0.06711222 0.09652109 4.3722353 0.9756501 -1.0075804 0 0
0.07042388 0.06711222 0.11296957 4.4565716 0.6165186 0.9178381 0 0
0.07042388 0.06711222 0.11296957 4.365436 0.9473841 1.0625355 0 0
0.057252556 0.08872691 0.07813112 1.65659 2.9465854 -3.1075542 0 0
0.049112234 0.10208551 0.1262767 0.2004795 3.9768016 2.2865713 0 0
0.03989482 0.037000243 0.124861844 3.3894086 2.0458722 2.325911 0 0
0.065392874 0.0753683 0.083213985 3.3250067 1.7252865 -2.6554227 0 0
0.04408123 0.11034158 0.09652109 -0.44468033 4.501091 -0.79119354 0 0
0.065392874 0.0753683 0.1262767 3.2690306 1.6913955 2.7452085 0 0
0.049112234 0.10208551 0.083213985 0.25653172 3.986232 -2.2644415 0 0
0.049112234 0.10208551 0.083213985 1.0277818 3.8575783 -2.2685468 0 0
0.08527531 0.11245951 0.085642435 0.35229504 0.30528408 -4.5679574 0 0
0.057252556 0.08872691 0.07813112 2.306168 2.847629 -2.7669742 0 0
0.04408123 0.11034158 0.11296957 -0.20342731 4.519459 0.78527755 0 0
0.04408123 0.11034158 0.11296957 -0.46082878 4.495821 0.8116561 0 0
0.065392874 0.0753683 0.1262767 3.3043258 1.1617439 2.9690626 0 0
0.065392874 0.0753683 0.083213985 3.5259233 1.8259275 -2.305949 0 0
0.04408123 0.11034158 0.09652109 0.1185087 4.4936075 -0.9364818 0 0
0.057252556 0.08872691 0.13135953 1.411697 2.5771039 3.5283422 0 0
0.07042388 0.06711222 0.09652109 4.350039 1.0157677 -1.0625091 0 0
0.049112234 0.10208551 0.1262767 0.16359138 3.8612313 2.4794514 0 0
0.11875674 0.13618948 0.13378799 -0.021734834 2.8452225 3.6038573 0 0
0.07857229 0.13686743 0.12048089 -1.9129143 3.9345095 1.3942546 0 0
0.0811326 0.12754443 0.13378799 -1.5025607 2.4177032 3.6028562 0 0
0.0919783 0.08805155 0.12048089 2.2081563 -3.7153602 1.5503854 0 0
0.08941799 0.097374566 0.09072529 1.8006082 -2.1311457 -3.6468582 0 0
0.07857229 0.13686743 0.1040324 -1.7526656 4.0454445 -1.2830011 0 0
0.08941799 0.097374566 0.13378799 0.8995499 -2.4014778 3.8088398 0 0
0.0919783 0.08805155 0.1040324 2.581135 -3.565608 -1.3068017 0 0
0.0811326 0.12754443 0.09072529 -0.9792519 2.6966295 -3.585081 0 0
0.08527531 0.11245951 0.13887087 -0.5284287 -0.0015191883 4.561174 0 0
0.112782024 0.10547837 0.09072529 0.22306025 -2.5948873 -3.7815807 0 0
0.1267823 0.09408208 0.1040324 1.7813921 -4.1107917 -1.0057753 0 0
0.110935725 0.0959881 0.1040324 0.62079644 -4.307151 -1.4651335 0 0
0.110935725 0.0959881 0.12048089 0.6207962 -4.3071504 1.465134 0 0
0.12060301 0.14567973 0.12048089 0.06737864 4.3899617 1.344339 0 0
0.112782024 0.10547837 0.13378799 0.22306132 -2.5948868 3.781581 0 0
0.11875674 0.13618948 0.09072529 -0.021736026 2.8452208 -3.6038578 0 0
0.11576937 0.120833926 0.13887087 -0.03324937 0.19863312 4.5872636 0 0
0.11576937 0.120833926 0.08564242 -0.033250533 0.19863188 -4.5872636 0 0
0.15084913 0.13861862 0.1040324 3.9526186 2.0430257 -1.1341966 0 0
0.13137867 0.10258781 0.13378799 2.0453467 -3.0780296 2.72504 0 0
0.12060301 0.14567973 0.1040324 0.067379355 4.3899617 -1.344339 0 0
0.14625278 0.13011289 0.09072529 3.4385948 0.777025 -2.9420815 0 0
0.13881573 0.11635035 0.13887087 2.672748 -1.2155594 3.53021 0 0
0.13881573 0.11635035 0.08564242 2.672748 -1.215558 -3.5302103 0 0
0.14625278 0.13011289 0.13378799 3.438595 0.77702296 2.9420822 0 0
0.1267823 0.09408208 0.12048089 1.7813909 -4.110792 1.0057755 0 0
0.13137867 0.10258781 0.09072529 2.0453467 -3.0780292 -2.7250397 0 0
0.15084913 0.13861862 0.12048089 3.952619 2.0430243 1.1341985 0 0
3 0 1 2
3 3 4 5
3 6 5 2
3 7 8 9
3 10 11 12
3 1 3 6
3 13 14 7
3 0 15 10
3 16 17 1
3 2 18 13
3 9 19 0
3 12 20 16
3 21 22 23
3 14 24 8
3 15 23 11
3 3 25 26
3 18 27 14
3 19 21 15
3 17 28 25
3 5 29 18
3 8 30 19
3 20 23 28
3 31 32 33
3 25 31 26
3 29 34 27
3 30 35 21
3 28 36 25
3 4 37 29
3 24 38 30
3 23 39 28
3 26 40 4
3 27 41 24
3 42 43 44
3 37 45 34
3 35 46 47
3 36 44 32
3 40 48 37
3 41 46 38
3 39 42 44
3 31 49 40
3 34 50 41
3 22 47 42
3 51 52 53
3 33 51 49
3 50 54 55
3 47 56 42
3 32 57 33
3 45 58 54
3 47 59 60
3 44 61 32
3 48 51 58
3 46 55 59
3 62 63 64
3 55 65 62
3 56 66 67
3 57 68 52
3 54 69 65
3 60 70 66
3 61 71 68
3 58 53 69
3 59 62 70
3 43 67 71
3 72 73 74
3 66 74 67
3 68 75 52
3 65 76 63
3 66 77 72
3 71 78 68
3 69 79 76
3 70 64 77
3 67 80 71
3 52 79 53
3 81 82 83
3 78 84 75
3 63 81 85
3 77 86 72
3 80 87 78
3 76 88 81
3 77 89 90
3 74 91 80
3 75 88 79
3 64 85 89
3 92 93 94
3 90 95 93
3 73 96 91
3 84 82 88
3 89 94 95
3 86 97 73
3 87 98 84
3 85 83 94
3 90 99 86
3 91 92 87
3 100 101 102
3 103 104 105
3 103 106 107
3 108 102 109
3 110 111 112
3 105 100 106
3 113 114 102
3 115 101 111
3 116 117 100
3 118 107 114
3 119 109 101
3 120 112 117
3 121 122 123
3 124 113 108
3 110 122 115
3 105 125 116
3 126 118 113
3 122 119 115
3 116 127 120
3 128 103 118
3 129 108 119
3 120 123 110
3 130 131 132
3 132 125 104
3 133 128 126
3 134 129 122
3 131 127 125
3 128 135 136
3 137 124 129
3 138 123 127
3 135 104 136
3 139 126 124
3 140 141 142
3 143 144 133
3 134 145 137
3 131 142 138
3 146 135 144
3 145 139 137
3 138 141 121
3 147 132 135
3 148 133 139
3 121 149 134
3 150 151 152
3 150 130 147
3 148 153 143
3 154 149 141
3 152 155 130
3 143 156 146
3 149 157 145
3 158 142 155
3 146 150 147
3 145 159 148
3 160 161 162
3 159 162 153
3 154 163 164
3 152 165 158
3 153 166 156
3 164 167 157
3 158 168 140
3 156 169 150
3 157 160 159
3 140 170 154
3 171 172 173
3 173 163 170
3 174 165 151
3 162 175 166
3 163 176 167
3 177 168 165
3 166 178 169
3 167 179 160
3 180 170 168
3 178 151 169
3 181 182 183
3 184 177 174
3 161 181 175
3 185 176 172
3 186 180 177
3 175 183 178
3 176 187 179
3 188 173 180
3 183 174 178
3 179 189 161
3 190 191 182
3 192 193 187
3 194 171 188
3 182 184 183
3 187 195 189
3 196 185 171
3 197 186 184
3 189 198 181
3 199 192 185
3 191 188 186
3 2 13 7
3 7 9 0
3 0 10 12
3 12 16 1
3 1 6 2
3 2 7 0
3 0 12 1
3 3 26 4
3 6 3 5
3 7 14 8
3 10 15 11
3 1 17 3
3 13 18 14
3 0 19 15
3 16 20 17
3 2 5 18
3 9 8 19
3 12 11 20
3 21 35 22
3 14 27 24
3 15 21 23
3 3 17 25
3 18 29 27
3 19 30 21
3 17 20 28
3 5 4 29
3 8 24 30
3 20 11 23
3 31 36 32
3 25 36 31
3 29 37 34
3 30 38 35
3 28 39 36
3 4 40 37
3 24 41 38
3 23 22 39
3 26 31 40
3 27 34 41
3 42 56 43
3 37 48 45
3 35 38 46
3 36 39 44
3 40 49 48
3 41 50 46
3 39 22 42
3 31 33 49
3 34 45 50
3 22 35 47
3 51 57 52
3 33 57 51
3 50 45 54
3 47 60 56
3 32 61 57
3 45 48 58
3 47 46 59
3 44 43 61
3 48 49 51
3 46 50 55
3 62 65 63
3 55 54 65
3 56 60 66
3 57 61 68
3 54 58 69
3 60 59 70
3 61 43 71
3 58 51 53
3 59 55 62
3 43 56 67
3 72 86 73
3 66 72 74
3 68 78 75
3 65 69 76
3 66 70 77
3 71 80 78
3 69 53 79
3 70 62 64
3 67 74 80
3 52 75 79
3 81 88 82
3 78 87 84
3 63 76 81
3 77 90 86
3 80 91 87
3 76 79 88
3 77 64 89
3 74 73 91
3 75 84 88
3 64 63 85
3 94 83 82
3 82 98 92
3 92 96 97
3 97 99 93
3 93 95 94
3 94 82 92
3 92 97 93
3 90 89 95
3 73 97 96
3 84 98 82
3 89 85 94
3 86 99 97
3 87 92 98
3 85 81 83
3 90 93 99
3 91 96 92
3 102 114 107
3 107 106 100
3 100 117 112
3 112 111 101
3 101 109 102
3 102 107 100
3 100 112 101
3 103 136 104
3 103 105 106
3 108 113 102
3 110 115 111
3 105 116 100
3 113 118 114
3 115 119 101
3 116 120 117
3 118 103 107
3 119 108 109
3 120 110 112
3 121 134 122
3 124 126 113
3 110 123 122
3 105 104 125
3 126 128 118
3 122 129 119
3 116 125 127
3 128 136 103
3 129 124 108
3 120 127 123
3 130 155 131
3 132 131 125
3 133 144 128
3 134 137 129
3 131 138 127
3 128 144 135
3 137 139 124
3 138 121 123
3 135 132 104
3 139 133 126
3 140 154 141
3 143 146 144
3 134 149 145
3 131 155 142
3 146 147 135
3 145 148 139
3 138 142 141
3 147 130 132
3 148 143 133
3 121 141 149
3 150 169 151
3 150 152 130
3 148 159 153
3 154 164 149
3 152 158 155
3 143 153 156
3 149 164 157
3 158 140 142
3 146 156 150
3 145 157 159
3 160 179 161
3 159 160 162
3 154 170 163
3 152 151 165
3 153 162 166
3 164 163 167
3 158 165 168
3 156 166 169
3 157 167 160
3 140 168 170
3 171 185 172
3 173 172 163
3 174 177 165
3 162 161 175
3 163 172 176
3 177 180 168
3 166 175 178
3 167 176 179
3 180 173 170
3 178 174 151
3 181 198 182
3 184 186 177
3 161 189 181
3 185 192 176
3 186 188 180
3 175 181 183
3 176 192 187
3 188 171 173
3 183 184 174
3 179 187 189
3 182 198 195
3 195 193 190
3 190 199 196
3 196 194 191
3 191 197 182
3 182 195 190
3 190 196 191
3 192 190 193
3 194 196 171
3 182 197 184
3 187 193 195
3 196 199 185
3 197 191 186
3 189 195 198
3 199 190 192
3 191 194 188
