ply
format ascii 1.0
comment Created in Blender version 4.0.1
element vertex 224
property float x
property float y
property float z
property float nx
property float ny
property float nz
property float s
property float t
element face 420
property list uchar uint vertex_indices
end_header
0.2643591 0.2218917 -0.17778233 0.4964262 2.151216 -1.6515869 0.625 0
0.4861346 0.07672655 0.23405766 1.6072754 0.9602215 2.4088326 0.5416666 0.25
0.4861346 0.07672659 -0.23405766 1.6072754 0.9602217 -2.4088318 0.5416666 0
0.2643591 0.2218917 0.17778233 0.49642634 2.151216 1.6515872 0.625 0.25
-0.45034623 0.07672655 0.23405766 -1.4216179 1.1530719 2.534766 0.5416666 0.5
-0.28486958 0.2218917 0.17778233 -0.6332551 2.122973 1.6065699 0.625 0.5
-0.45034623 0.07672655 -0.23405766 -1.4216179 1.1530721 -2.5347657 0.5416666 0.75
0.2643591 0.2218917 -0.17778233 0.4964262 2.151216 -1.6515869 0.625 1
0.4861346 0.07672659 -0.23405766 1.6072754 0.9602217 -2.4088318 0.5416666 1
-0.4089603 -0.2218917 0.20718043 -0.9781261 -1.9122264 1.7959722 0.375 0.5
0.41280043 -0.2218917 -0.20718043 1.0965555 -1.8449663 -1.7786311 0.125 0.75
0.41280043 -0.2218917 0.20718043 1.0965554 -1.844966 1.7786309 0.125 0.5
0.2643591 0.2218917 0.17778233 0.49642634 2.151216 1.6515872 0.875 0.5
-0.28486958 0.2218917 -0.17778233 -0.6332551 2.122973 -1.6065694 0.625 0.75
-0.4089603 -0.2218917 -0.20718043 -0.978126 -1.9122264 -1.795972 0.375 0.75
0.46497124 -0.07672655 -0.24599235 1.48794 -0.5349934 -2.9586926 0.4583333 1
0.41280043 -0.2218917 -0.20718043 1.0965555 -1.8449663 -1.7786311 0.375 1
-0.48408917 -0.07672657 -0.24599235 -1.6265198 -0.3621487 -2.7986019 0.4583333 0.75
-0.48408917 -0.07672657 0.24599235 -1.6265198 -0.36214867 2.7986016 0.4583333 0.5
0.46497124 -0.07672657 0.24599235 1.48794 -0.5349936 2.9586928 0.4583333 0.25
0.41280043 -0.2218917 0.20718043 1.0965554 -1.844966 1.7786309 0.375 0.25
0.46497124 -0.07672655 -0.24599235 1.48794 -0.5349934 -2.9586926 0.4583333 0
0.41280043 -0.2218917 -0.20718043 1.0965555 -1.8449663 -1.7786311 0.375 0
0.33085278 0.1792797 -0.08678099 -2.2396991 -0.3765591 0.58547986 0 0
0.39254746 0.1389078 -0.14034903 0.28930363 -2.0576046 -2.0853083 0 0
0.40711161 0.12937729 -0.08678099 0.5661981 -2.3204231 0.6043904 0 0
0.45177022 0.19762278 -0.08678099 2.2396994 0.37655726 0.5854825 0 0
0.4372787 0.20710582 -0.11076552 -0.28593075 2.382614 0.54194283 0 0
0.4372787 0.20710582 -0.092408136 -0.2859288 2.3826141 -0.5419434 0 0
0.40711161 0.12937729 -0.11639268 0.5661993 -2.320423 -0.60439074 0 0
0.34541693 0.16974917 -0.06282463 -1.9131495 -0.53055304 2.0534716 0 0
0.41364077 0.22257398 -0.053674117 0.77263725 1.2348232 3.218145 0 0
0.3900755 0.23799466 -0.06282463 -0.28930396 2.0576036 2.0853105 0 0
0.33085278 0.1792797 -0.11639268 -2.2396996 -0.37655616 -0.58547944 0 0
0.3900755 0.23799466 -0.14034903 -0.28930372 2.0576036 -2.085311 0 0
0.34541693 0.16974917 -0.14034903 -1.9131489 -0.5305528 -2.0534728 0 0
0.45177022 0.19762278 -0.11639268 2.2396991 0.37655777 -0.58548266 0 0
0.3689822 0.1543285 -0.053674117 -0.77263707 -1.2348235 3.2181442 0 0
0.43720606 0.20715329 -0.06282463 1.9131488 0.53055054 2.053475 0 0
0.37551138 0.24752519 -0.11639268 -0.5661973 2.3204234 -0.60439104 0 0
0.3689822 0.1543285 -0.14949955 -0.7726361 -1.2348248 -3.2181442 0 0
0.43720606 0.20715329 -0.14034903 1.9131485 0.53055084 -2.0534754 0 0
0.39254746 0.1389078 -0.06282463 0.289304 -2.0576053 2.085305 0 0
0.37551138 0.24752519 -0.08678099 -0.56619734 2.3204234 0.6043909 0 0
0.41364077 0.22257398 -0.14949955 0.77263737 1.234823 -3.218145 0 0
0.39903185 0.23213384 -0.12561695 1.895167 0.9681276 1.6083696 0 0
0.37384075 0.2133437 -0.11076552 2.2396994 0.37655887 0.5854802 0 0
0.3828696 0.20743538 -0.12561695 1.9131522 0.53055155 2.0534644 0 0
0.4136408 0.22257398 -0.07188396 1.107584 1.6551309 -2.226382 0 0
0.39903185 0.23213384 -0.07755671 1.8951675 0.96812683 -1.6083697 0 0
0.4282498 0.21301414 -0.12561695 0.12938131 2.193539 1.7126151 0 0
0.39000297 0.23804218 -0.11076552 2.183448 0.6715398 0.5056335 0 0
0.4136408 0.22257398 -0.13128969 1.1075834 1.6551311 2.2263834 0 0
0.4282498 0.21301414 -0.07755671 0.12938096 2.1935391 -1.712614 0 0
0.39000297 0.23804218 -0.092408136 2.183448 0.6715405 -0.5056344 0 0
0.42111644 0.18240736 -0.11076552 -0.56620795 2.3204203 0.60439193 0 0
0.41056845 0.18930976 -0.12311816 1.9096507 0.9302753 -1.6173013 0 0
0.41865844 0.18401581 -0.10981107 2.1841822 0.6739957 -0.48608655 0 0
0.41208756 0.18831567 -0.12561695 -0.28930002 2.0576046 2.0853095 0 0
0.3974786 0.19787553 -0.07188396 0.7726375 1.234822 -3.2181458 0 0
0.3974786 0.19787553 -0.13128969 0.772632 1.2348262 3.2181456 0 0
0.41208756 0.18831567 -0.07755671 -0.28930113 2.057605 -2.0853076 0 0
0.37384075 0.2133437 -0.092408136 2.2397006 0.37655076 -0.5854785 0 0
0.42111644 0.18240736 -0.092408136 -0.56620795 2.3204203 -0.6043924 0 0
0.3828696 0.20743538 -0.07755671 1.9131514 0.53055376 -2.0534647 0 0
0.38438872 0.20644131 -0.12311816 0.122386895 2.2059445 -1.6688347 0 0
0.4279262 0.24103642 -0.12961587 -0.22509502 1.8846834 -2.5240347 0 0
0.3974786 0.19787553 -0.12820102 1.0855013 1.6400542 -2.2910614 0 0
0.3974786 0.19787553 -0.07497263 1.1186861 1.684934 2.1445022 0 0
0.37629873 0.21173525 -0.10981107 -0.22879313 2.3926654 -0.5011713 0 0
0.41056845 0.18930976 -0.08005549 1.8866072 1.0052524 1.5756116 0 0
0.38438872 0.20644131 -0.08005549 0.18688026 2.208707 1.6394917 0 0
0.37629873 0.21173525 -0.093362585 -0.20958187 2.3930311 0.52225274 0 0
0.41865844 0.18401581 -0.093362585 2.1743803 0.70137274 0.5145333 0 0
0.44109753 0.21942171 -0.09477743 1.9796698 1.1287128 0.7804077 0 0
0.44109753 0.21942171 -0.11122591 2.034705 1.0158812 -0.7712279 0 0
0.44109753 0.21942171 -0.09477743 1.9188981 1.190038 0.9769221 0 0
0.4279262 0.24103642 -0.07638747 -0.11820347 1.900558 2.513389 0 0
0.41978586 0.254395 -0.081470326 -0.8044335 2.1284413 1.3195761 0 0
0.41978586 0.254395 -0.12453301 -0.8461203 2.1078477 -1.3305159 0 0
0.44109753 0.21942171 -0.11122591 1.9786289 1.1111223 -0.8560821 0 0
0.4360665 0.22767779 -0.081470326 1.3267788 1.3185161 2.4687102 0 0
0.4147549 0.26265112 -0.09477743 -0.99324226 2.1723611 0.37651294 0 0
0.4147549 0.26265112 -0.11122591 -1.004543 2.1654997 -0.3930382 0 0
0.4360665 0.22767779 -0.12453301 1.2437541 1.2936014 -2.6361313 0 0
0.41978586 0.254395 -0.081470326 -0.28949872 2.2212193 1.5421201 0 0
0.45594898 0.26476902 -0.083898775 0.3045402 0.27425924 4.0027614 0 0
0.45180625 0.2798539 -0.088981636 -0.6230982 1.7619629 2.5627816 0 0
0.4279262 0.24103642 -0.07638747 0.4722328 1.9804231 2.1879642 0 0
0.4147549 0.26265112 -0.11122591 -0.8145831 2.2549896 -0.35861903 0 0
0.41978586 0.254395 -0.12453301 -0.87877864 2.0690506 -1.4314461 0 0
0.4360665 0.22767779 -0.12453301 1.0924844 1.0422515 -3.1166196 0 0
0.4360665 0.22767779 -0.081470326 1.303667 1.5633442 2.0737343 0 0
0.4147549 0.26265112 -0.09477743 -0.67290956 2.296741 0.5068803 0 0
0.4279262 0.24103642 -0.12961587 -0.47800615 1.5351837 -3.0289667 0 0
0.44924593 0.28917694 -0.11873723 -1.0383533 2.101031 -0.8432991 0 0
0.4894304 0.28849897 -0.13204435 -0.005586148 1.8480222 -2.6296694 0 0
0.45180625 0.2798539 -0.13204435 -0.9672625 1.541476 -2.6258767 0 0
0.4626519 0.24036105 -0.11873723 1.1707214 -2.0091038 -0.92428064 0 0
0.46009162 0.24968408 -0.088981636 1.2025121 -1.3796326 2.5728333 0 0
0.44924593 0.28917694 -0.10228874 -0.93569416 2.1707191 0.71492237 0 0
0.46009162 0.24968408 -0.13204435 0.5425128 -1.6127973 -2.8774934 0 0
0.45594898 0.26476902 -0.1371272 -0.42357177 -0.023542143 -3.9949336 0 0
0.4626519 0.24036105 -0.10228874 1.3651865 -1.9040855 0.67751735 0 0
0.4834557 0.25778788 -0.088981636 0.15566146 -1.7424054 2.8117814 0 0
0.49745592 0.24639161 -0.10228874 0.9540122 -2.1783428 0.55577886 0 0
0.5020523 0.25489733 -0.08898163 0.95588297 -1.8509974 2.0023165 0 0
0.48160934 0.24829763 -0.11873723 0.32964072 -2.34446 -0.84649867 0 0
0.48644298 0.2731434 -0.08389877 -0.025508545 0.16960822 4.0549455 0 0
0.49127665 0.29798922 -0.11873723 0.032949705 2.3774068 -0.78567415 0 0
0.4834557 0.25778788 -0.13204435 0.15566257 -1.7424043 -2.8117826 0 0
0.48160934 0.24829763 -0.10228874 0.32964274 -2.3444598 0.8464995 0 0
0.4894304 0.28849897 -0.088981636 -0.005586216 1.8480217 2.6296704 0 0
0.49127665 0.29798922 -0.10228874 0.03295018 2.3774066 0.7856757 0 0
0.48644298 0.2731434 -0.1371272 -0.02550804 0.1696083 -4.0549455 0 0
0.5020523 0.25489733 -0.13204435 0.9558876 -1.8509985 -2.0023074 0 0
0.52152276 0.29092813 -0.10228874 2.01434 1.089267 0.64770633 0 0
0.50948936 0.26865983 -0.08389877 1.3015634 -0.5335259 3.2239957 0 0
0.5169264 0.2824224 -0.08898163 1.8160005 0.7177481 2.1677446 0 0
0.50948936 0.26865983 -0.1371272 1.3015631 -0.5335269 -3.2239954 0 0
0.5169264 0.2824224 -0.13204435 1.815998 0.71774846 -2.1677506 0 0
0.49745592 0.24639161 -0.11873723 0.9540116 -2.178343 -0.5557787 0 0
0.52152276 0.29092813 -0.11873723 2.0143394 1.0892686 -0.6477073 0 0
0.39254752 0.13890776 0.14034928 0.28930405 -2.0576046 2.085308 0 0
0.33085278 0.17927964 0.08678123 -2.239699 -0.37655935 -0.5854805 0 0
0.36898223 0.15432845 0.05367436 -0.772637 -1.2348222 -3.218146 0 0
0.45177028 0.19762276 0.08678123 2.239699 0.3765582 -0.58548313 0 0
0.43727872 0.2071058 0.11076577 -0.28592998 2.3826144 -0.5419395 0 0
0.45177028 0.19762276 0.116392925 2.239699 0.37655815 0.5854838 0 0
0.40711164 0.12937725 0.116392925 0.5661971 -2.3204236 0.6043887 0 0
0.40711164 0.12937725 0.08678123 0.5661984 -2.3204234 -0.60438824 0 0
0.34541693 0.16974914 0.062824875 -1.9131488 -0.5305497 -2.0534756 0 0
0.41364083 0.22257394 0.05367436 0.7726371 1.2348213 -3.218147 0 0
0.39007556 0.23799463 0.14034928 -0.2893041 2.0576048 2.0853074 0 0
0.33085278 0.17927964 0.116392925 -2.2396991 -0.37655953 0.58548015 0 0
0.34541693 0.16974914 0.14034928 -1.9131486 -0.5305518 2.053475 0 0
0.43720612 0.20715326 0.062824875 1.9131479 0.53055197 -2.0534756 0 0
0.39254752 0.13890776 0.062824875 0.2893055 -2.0576036 -2.08531 0 0
0.3755114 0.24752514 0.116392925 -0.5661994 2.3204231 0.6043865 0 0
0.43720612 0.20715326 0.14034928 1.9131482 0.53055227 2.0534756 0 0
0.36898223 0.15432845 0.1494998 -0.7726375 -1.234823 3.2181451 0 0
0.39007556 0.23799463 0.062824875 -0.28930354 2.0576048 -2.0853078 0 0
0.41364083 0.22257394 0.1494998 0.7726368 1.2348213 3.2181468 0 0
0.39903188 0.2321338 0.1256172 1.8951668 0.9681281 -1.6083686 0 0
0.37384078 0.21334367 0.11076577 2.2396991 0.37655646 -0.58548635 0 0
0.39000303 0.23804213 0.11076577 2.1834483 0.6715395 -0.5056296 0 0
0.41364086 0.22257397 0.071884215 1.1075835 1.6551316 2.226382 0 0
0.42824984 0.21301411 0.1256172 0.1293782 2.1935387 -1.7126168 0 0
0.3755114 0.24752514 0.08678123 -0.56619936 2.3204231 -0.60438675 0 0
0.41364086 0.22257397 0.13128996 1.1075842 1.6551313 -2.2263813 0 0
0.42824984 0.21301411 0.077556945 0.12937905 2.1935382 1.712618 0 0
0.39903188 0.2321338 0.077556945 1.8951659 0.9681291 1.6083704 0 0
0.42111647 0.18240732 0.11076577 -0.5661921 2.3204255 -0.6043834 0 0
0.4105685 0.18930972 0.123118445 1.9096489 0.9302824 1.617297 0 0
0.41208762 0.18831564 0.1256172 -0.28930438 2.057605 -2.0853062 0 0
0.39747864 0.19787548 0.071884215 0.7726349 1.2348235 3.2181463 0 0
0.39000303 0.23804213 0.09240839 2.183448 0.6715402 0.50562984 0 0
0.39747864 0.19787548 0.13128996 0.7726383 1.234822 -3.2181454 0 0
0.41208762 0.18831564 0.077556945 -0.28930107 2.0576034 2.0853126 0 0
0.43727872 0.2071058 0.09240839 -0.28593045 2.3826144 0.5419397 0 0
0.37384078 0.21334367 0.09240839 2.2396996 0.37655368 0.58548397 0 0
0.38286963 0.20743532 0.1256172 1.9131494 0.5305594 -2.0534675 0 0
0.42111647 0.18240732 0.09240839 -0.5661924 2.3204255 0.60438114 0 0
0.38286963 0.20743532 0.077556945 1.9131501 0.5305574 2.0534668 0 0
0.42792624 0.24103639 0.12961613 -0.22510894 1.8846047 2.5241969 0 0
0.38438877 0.20644127 0.123118445 0.12237895 2.2059443 1.6688375 0 0
0.39747867 0.19787548 0.12820128 1.0855094 1.6400458 2.2910666 0 0
0.39747867 0.19787548 0.074972875 1.1186848 1.6849347 -2.144503 0 0
0.3762988 0.21173519 0.093362845 -0.2095918 2.393031 -0.52224386 0 0
0.4105685 0.18930972 0.080055736 1.8866084 1.0052537 -1.5756043 0 0
0.38438877 0.20644127 0.080055736 0.18687464 2.208706 -1.6394969 0 0
0.4186585 0.1840158 0.093362845 2.1743858 0.7013524 -0.51454043 0 0
0.4410976 0.2194217 0.09477768 1.9796696 1.1287129 -0.7804084 0 0
0.4410976 0.2194217 0.111226164 2.0347047 1.0158821 0.7712285 0 0
0.4410976 0.2194217 0.111226164 1.9787694 1.1108253 0.85614324 0 0
0.4186585 0.1840158 0.10981133 2.1841872 0.6739753 0.48609218 0 0
0.42792624 0.24103639 0.07638771 -0.11820359 1.900558 -2.513389 0 0
0.41978592 0.25439498 0.124533296 -0.84619117 2.1077914 1.3306264 0 0
0.3762988 0.21173519 0.10981133 -0.22878994 2.392666 0.5011639 0 0
0.43606657 0.22767776 0.08147058 1.3267802 1.3185155 -2.468708 0 0
0.41475493 0.26265106 0.09477768 -0.99324316 2.1723602 -0.37651286 0 0
0.43606657 0.22767776 0.124533296 1.2438188 1.2934273 2.6362753 0 0
0.41978592 0.25439498 0.08147058 -0.8044815 2.1284044 -1.3196511 0 0
0.41978592 0.25439498 0.08147058 -0.28950098 2.221219 -1.5421199 0 0
0.45594898 0.264769 0.08389903 0.3045419 0.27426142 -4.0027604 0 0
0.42792624 0.24103639 0.07638771 0.47226137 1.9803588 -2.188109 0 0
0.41475493 0.26265106 0.111226164 -0.8146455 2.254963 0.35864773 0 0
0.41475493 0.26265106 0.111226164 -1.0045441 2.165499 0.39303696 0 0
0.43606657 0.22767776 0.124533296 1.0925823 1.0418411 3.1168978 0 0
0.43606657 0.22767776 0.08147058 1.3036634 1.563345 -2.0737402 0 0
0.41475493 0.26265106 0.09477768 -0.67290986 2.2967408 -0.5068805 0 0
0.42792624 0.24103639 0.12961613 -0.4780304 1.5350574 3.0291345 0 0
0.4410976 0.2194217 0.09477768 1.9188981 1.1900384 -0.9769201 0 0
0.41978592 0.25439498 0.124533296 -0.8788261 2.0690084 1.4315256 0 0
0.48943046 0.28849897 0.1320446 -0.00558551 1.8480237 2.6296663 0 0
0.44924596 0.28917688 0.118737474 -1.038353 2.1010315 0.8432994 0 0
0.4518063 0.2798539 0.1320446 -0.9672618 1.5414776 2.625875 0 0
0.46265197 0.24036103 0.118737474 1.1707195 -2.009105 0.92428195 0 0
0.46009168 0.24968405 0.08898188 1.2025124 -1.3796304 -2.5728354 0 0
0.44924596 0.28917688 0.10228899 -0.9356937 2.1707191 -0.714923 0 0
0.46009168 0.24968405 0.1320446 0.54251164 -1.6127993 2.8774908 0 0
0.4518063 0.2798539 0.08898188 -0.62309724 1.7619634 -2.5627816 0 0
0.45594898 0.264769 0.13712744 -0.4235741 -0.023545122 3.994933 0 0
0.46265197 0.24036103 0.10228899 1.3651836 -1.9040877 -0.67751753 0 0
0.4834557 0.25778785 0.08898188 0.15566345 -1.742405 -2.8117816 0 0
0.49745598 0.24639156 0.10228899 0.95401 -2.178344 -0.5557795 0 0
0.4816094 0.24829757 0.10228899 0.32963789 -2.34446 -0.8465039 0 0
0.4816094 0.24829757 0.118737474 0.32964 -2.34446 0.84650224 0 0
0.4912767 0.2979892 0.118737474 0.03295018 2.3774064 0.78567517 0 0
0.4834557 0.25778785 0.1320446 0.15566427 -1.7424041 2.8117828 0 0
0.48943046 0.28849897 0.08898188 -0.005585722 1.8480242 -2.6296654 0 0
0.48644304 0.27314338 0.13712744 -0.025507344 0.16960494 4.054946 0 0
0.48644304 0.27314338 0.08389901 -0.025508186 0.16960512 -4.054946 0 0
0.5215228 0.29092807 0.10228899 2.0143397 1.089266 -0.64771503 0 0
0.50205237 0.2548973 0.1320446 0.9558885 -1.8509974 2.0023086 0 0
0.4912767 0.2979892 0.10228899 0.032949675 2.3774064 -0.7856758 0 0
0.51692647 0.28242236 0.08898188 1.8159974 0.71774894 -2.1677518 0 0
0.5094894 0.26865983 0.13712744 1.3015617 -0.53351843 3.2240014 0 0
0.5094894 0.26865983 0.08389901 1.3015636 -0.53352153 -3.2239974 0 0
0.51692647 0.28242236 0.1320446 1.815997 0.7177532 2.1677482 0 0
0.49745598 0.24639156 0.118737474 0.9540085 -2.1783447 0.55577904 0 0
0.50205237 0.2548973 0.08898188 0.9558958 -1.8510007 -2.0022893 0 0
0.5215228 0.29092807 0.118737474 2.0143404 1.0892649 0.6477126 0 0
0.2643591 0.2218917 -0.17778233 0.4964262 2.151216 -1.6515869 0.875 0.75
3 0 1 2
3 3 4 1
3 5 6 4
3 6 7 8
3 9 10 11
3 12 13 5
3 14 15 16
3 6 15 17
3 18 14 9
3 4 17 18
3 19 9 20
3 19 4 18
3 21 20 22
3 21 1 19
3 23 24 25
3 26 27 28
3 29 26 25
3 30 31 32
3 33 34 35
3 24 36 29
3 37 38 31
3 23 39 33
3 40 41 24
3 42 26 38
3 23 32 43
3 35 44 40
3 45 46 47
3 32 48 49
3 39 45 34
3 36 50 27
3 38 48 31
3 43 51 39
3 41 52 50
3 26 53 38
3 43 49 54
3 34 52 44
3 55 56 57
3 27 58 55
3 53 59 48
3 54 46 51
3 50 60 58
3 28 61 53
3 49 62 54
3 52 47 60
3 27 63 28
3 48 64 49
3 65 66 67
3 61 68 59
3 62 69 46
3 58 67 56
3 63 70 61
3 62 71 72
3 47 67 60
3 55 73 63
3 64 68 71
3 46 65 47
3 74 75 76
3 57 74 73
3 71 77 78
3 69 79 65
3 56 80 57
3 68 81 77
3 69 82 83
3 67 84 56
3 70 74 81
3 72 78 82
3 85 86 87
3 78 88 85
3 79 89 90
3 80 91 75
3 77 92 88
3 83 93 89
3 84 94 91
3 81 76 92
3 82 85 93
3 66 90 94
3 95 96 97
3 90 95 97
3 91 98 75
3 88 99 86
3 89 100 95
3 94 101 91
3 76 99 92
3 93 87 100
3 90 102 94
3 75 103 76
3 104 105 106
3 101 107 98
3 86 104 108
3 100 109 95
3 102 110 101
3 99 111 104
3 100 112 113
3 97 114 102
3 98 111 103
3 87 108 112
3 115 116 117
3 113 118 116
3 96 119 114
3 107 105 111
3 112 117 118
3 109 120 96
3 110 121 107
3 108 106 117
3 113 122 109
3 114 115 110
3 123 124 125
3 126 127 128
3 126 129 130
3 131 132 125
3 133 134 135
3 128 123 129
3 125 136 137
3 138 124 134
3 139 140 123
3 137 126 130
3 124 141 131
3 142 135 140
3 143 144 145
3 141 146 132
3 143 138 133
3 128 147 139
3 146 136 132
3 145 148 138
3 139 149 142
3 150 126 136
3 148 151 141
3 149 133 142
3 152 153 154
3 127 154 147
3 155 150 146
3 144 156 145
3 147 157 149
3 158 159 150
3 160 151 156
3 149 161 143
3 162 127 159
3 163 146 151
3 164 165 166
3 167 158 155
3 144 168 160
3 154 166 157
3 169 162 158
3 160 170 163
3 166 161 157
3 171 152 162
3 163 167 155
3 165 144 161
3 172 173 174
3 172 175 171
3 170 176 167
3 177 178 165
3 174 153 175
3 167 179 169
3 178 180 168
3 181 166 153
3 169 172 171
3 168 182 170
3 183 184 185
3 182 185 176
3 177 186 187
3 174 188 181
3 176 189 179
3 187 190 180
3 181 191 164
3 179 192 172
3 180 183 182
3 164 193 177
3 194 195 196
3 193 195 186
3 197 188 173
3 185 198 189
3 186 199 190
3 200 191 188
3 198 192 189
3 190 201 183
3 202 193 191
3 203 173 192
3 204 205 206
3 207 200 197
3 184 204 198
3 208 199 195
3 209 202 200
3 198 206 203
3 199 210 201
3 211 196 202
3 206 197 203
3 201 212 184
3 213 214 205
3 215 216 210
3 217 194 211
3 205 207 206
3 210 218 212
3 219 208 194
3 220 209 207
3 212 221 204
3 222 215 208
3 214 211 209
3 0 3 1
3 3 5 4
3 5 13 6
3 6 13 7
3 9 14 10
3 12 223 13
3 14 17 15
3 6 8 15
3 18 17 14
3 4 6 17
3 19 18 9
3 19 1 4
3 21 19 20
3 21 2 1
3 25 42 37
3 37 30 23
3 23 33 35
3 35 40 24
3 24 29 25
3 25 37 23
3 23 35 24
3 26 36 27
3 29 36 26
3 30 37 31
3 33 39 34
3 24 41 36
3 37 42 38
3 23 43 39
3 40 44 41
3 42 25 26
3 23 30 32
3 35 34 44
3 45 51 46
3 32 31 48
3 39 51 45
3 36 41 50
3 38 53 48
3 43 54 51
3 41 44 52
3 26 28 53
3 43 32 49
3 34 45 52
3 55 58 56
3 27 50 58
3 53 61 59
3 54 62 46
3 50 52 60
3 28 63 61
3 49 64 62
3 52 45 47
3 27 55 63
3 48 59 64
3 65 79 66
3 61 70 68
3 62 72 69
3 58 60 67
3 63 73 70
3 62 64 71
3 47 65 67
3 55 57 73
3 64 59 68
3 46 69 65
3 74 80 75
3 57 80 74
3 71 68 77
3 69 83 79
3 56 84 80
3 68 70 81
3 69 72 82
3 67 66 84
3 70 73 74
3 72 71 78
3 85 88 86
3 78 77 88
3 79 83 89
3 80 84 91
3 77 81 92
3 83 82 93
3 84 66 94
3 81 74 76
3 82 78 85
3 66 79 90
3 95 109 96
3 90 89 95
3 91 101 98
3 88 92 99
3 89 93 100
3 94 102 101
3 76 103 99
3 93 85 87
3 90 97 102
3 75 98 103
3 104 111 105
3 101 110 107
3 86 99 104
3 100 113 109
3 102 114 110
3 99 103 111
3 100 87 112
3 97 96 114
3 98 107 111
3 87 86 108
3 117 106 105
3 105 121 115
3 115 119 120
3 120 122 116
3 116 118 117
3 117 105 115
3 115 120 116
3 113 112 118
3 96 120 119
3 107 121 105
3 112 108 117
3 109 122 120
3 110 115 121
3 108 104 106
3 113 116 122
3 114 119 115
3 125 137 130
3 130 129 123
3 123 140 135
3 135 134 124
3 124 131 125
3 125 130 123
3 123 135 124
3 126 159 127
3 126 128 129
3 131 141 132
3 133 138 134
3 128 139 123
3 125 132 136
3 138 148 124
3 139 142 140
3 137 136 126
3 124 148 141
3 142 133 135
3 143 161 144
3 141 151 146
3 143 145 138
3 128 127 147
3 146 150 136
3 145 156 148
3 139 147 149
3 150 159 126
3 148 156 151
3 149 143 133
3 152 175 153
3 127 152 154
3 155 158 150
3 144 160 156
3 147 154 157
3 158 162 159
3 160 163 151
3 149 157 161
3 162 152 127
3 163 155 146
3 164 177 165
3 167 169 158
3 144 178 168
3 154 153 166
3 169 171 162
3 160 168 170
3 166 165 161
3 171 175 152
3 163 170 167
3 165 178 144
3 172 192 173
3 172 174 175
3 170 182 176
3 177 187 178
3 174 181 153
3 167 176 179
3 178 187 180
3 181 164 166
3 169 179 172
3 168 180 182
3 183 201 184
3 182 183 185
3 177 193 186
3 174 173 188
3 176 185 189
3 187 186 190
3 181 188 191
3 179 189 192
3 180 190 183
3 164 191 193
3 194 208 195
3 193 196 195
3 197 200 188
3 185 184 198
3 186 195 199
3 200 202 191
3 198 203 192
3 190 199 201
3 202 196 193
3 203 197 173
3 204 221 205
3 207 209 200
3 184 212 204
3 208 215 199
3 209 211 202
3 198 204 206
3 199 215 210
3 211 194 196
3 206 207 197
3 201 210 212
3 205 221 218
3 218 216 213
3 213 222 219
3 219 217 214
3 214 220 205
3 205 218 213
3 213 219 214
3 215 213 216
3 217 219 194
3 205 220 207
3 210 216 218
3 219 222 208
3 220 214 209
3 212 218 221
3 222 213 215
3 214 217 211
