ply
format ascii 1.0
comment Created in Blender version 4.0.1
element vertex 60
property float x
property float y
property float z
property float nx
property float ny
property float nz
property float s
property float t
element face 72
property list uchar uint vertex_indices
end_header
0.49020284 -0.020665549 -0.24555276 -6.6590195 -31.556686 9.724451 0.375 0.25
0.59243715 -0.10438675 -0.24555276 4.9547176 -4.250339 7.1471763 0.625 0.25
0.49330246 -0.00088994205 -0.24555276 13.92611 65.34868 5.994705 0.625 0.25
-0.24114886 0.10119943 -0.23755583 4.2344327 54.99109 6.4088883 0.625 0.5
-0.2442485 0.081423834 -0.23755583 -2.6550913 -35.435966 9.035391 0.375 0.5
-0.3783039 0.047253355 -0.38800022 3.9809356 -8.084221 -7.640556 0.375 0.75
-0.2442485 0.081423834 -0.38800022 -2.7948554 -36.008087 -9.039967 0.375 0.75
-0.24114886 0.10119943 -0.38800022 4.1660056 55.020237 -6.30979 0.625 0.75
0.49020284 -0.020665549 -0.39599714 -6.6547556 -30.976194 -9.715518 0.375 1
0.49020284 -0.020665549 -0.24555276 -6.6590195 -31.556686 9.724451 0.125 0.5
0.49020284 -0.020665549 -0.39599714 -6.6547556 -30.976194 -9.715518 0.125 0.75
0.49330246 -0.00088994205 -0.24555276 13.92611 65.34868 5.994705 0.875 0.5
-0.38986075 0.06359722 -0.38800022 -4.145304 8.502728 -7.319945 0.625 0.75
-0.45564213 -0.023437135 -0.23755583 -5.9746666 -2.775896 7.266674 0.625 0.5
-0.38986075 0.06359722 -0.23755583 -4.145303 8.502732 7.319946 0.625 0.5
-0.3783039 0.047253355 -0.23755583 3.9809327 -8.084235 7.6405544 0.375 0.5
-0.43961966 -0.035435557 -0.38800022 -12.7090225 -83.177055 -5.684064 0.375 0.75
-0.43961966 -0.035435557 -0.23755583 -12.709033 -83.177055 5.684064 0.375 0.5
-0.45564213 -0.023437135 -0.38800022 -5.9746695 -2.775913 -7.266674 0.625 0.75
0.59243715 -0.10438675 -0.39599714 4.954716 -4.2503424 -7.147177 0.625 0
0.57288116 -0.10865883 -0.24555276 -13.322319 -83.04326 5.69259 0.375 0.25
0.57288116 -0.10865883 -0.39599714 -13.32231 -83.04327 -5.6925907 0.375 0
0.59243715 -0.10438675 -0.39599714 4.954716 -4.2503424 -7.147177 0.625 1
0.57288116 -0.10865883 -0.39599714 -13.32231 -83.04327 -5.6925907 0.375 1
0.59243715 -0.10438675 -0.39599714 4.954716 -4.2503424 -7.147177 0.875 0.75
0.49330246 -0.00088994205 -0.39599714 13.844744 65.158455 -6.0793896 0.875 0.75
0.57288116 -0.10865883 -0.24555276 -13.322319 -83.04326 5.69259 0.125 0.5
0.49020278 -0.020665567 0.24555276 6.659019 31.556686 9.724451 0.375 0.25
0.592437 -0.104386754 0.24555276 -4.9547153 4.2503347 7.1471815 0.625 0.25
0.4933024 -0.0008899644 0.24555276 -13.92611 -65.34868 5.994705 0.625 0.25
-0.24114883 0.10119942 0.23755583 -4.2344356 -54.9911 6.408889 0.625 0.5
-0.24424846 0.08142382 0.23755583 2.6550925 35.43597 9.03539 0.375 0.5
-0.37830383 0.04725335 0.38800022 -3.9809384 8.084228 -7.640549 0.375 0.75
-0.24424846 0.08142382 0.38800022 2.7948577 36.0081 -9.039967 0.375 0.75
-0.24114883 0.10119942 0.38800022 -4.1660085 -55.02025 -6.30979 0.625 0.75
0.49020278 -0.020665567 0.39599714 6.6547527 30.976181 -9.715518 0.375 1
0.49020278 -0.020665567 0.24555276 6.659019 31.556686 9.724451 0.125 0.5
0.49020278 -0.020665567 0.39599714 6.6547527 30.976181 -9.715518 0.125 0.75
0.4933024 -0.0008899644 0.24555276 -13.92611 -65.34868 5.994705 0.875 0.5
-0.3898607 0.0635972 0.38800022 4.1453047 -8.502731 -7.3199425 0.625 0.75
-0.45564207 -0.023437127 0.23755583 5.974675 2.7759023 7.266663 0.625 0.5
-0.3898607 0.0635972 0.23755583 4.1453066 -8.502719 7.3199425 0.625 0.5
-0.37830383 0.04725335 0.23755583 -3.9809356 8.084243 7.64055 0.375 0.5
-0.4396196 -0.03543555 0.38800022 12.709055 83.17715 -5.68405 0.375 0.75
-0.4396196 -0.03543555 0.23755583 12.709053 83.177185 5.684044 0.375 0.5
-0.45564207 -0.023437127 0.38800022 5.9746766 2.7759104 -7.266662 0.625 0.75
0.592437 -0.104386754 0.39599714 -4.954715 4.250337 -7.1471815 0.625 0
0.5728811 -0.108658835 0.24555276 13.322312 83.04325 5.6925907 0.375 0.25
0.5728811 -0.108658835 0.39599714 13.32231 83.04327 -5.6925907 0.375 0
0.592437 -0.104386754 0.39599714 -4.954715 4.250337 -7.1471815 0.625 1
0.5728811 -0.108658835 0.39599714 13.32231 83.04327 -5.6925907 0.375 1
0.592437 -0.104386754 0.39599714 -4.954715 4.250337 -7.1471815 0.875 0.75
0.4933024 -0.0008899644 0.39599714 -13.84474 -65.15843 -6.079391 0.875 0.75
0.5728811 -0.108658835 0.24555276 13.322312 83.04325 5.6925907 0.125 0.5
0.49330246 -0.00088994205 -0.39599714 13.844744 65.158455 -6.0793896 0.625 1
0.59243715 -0.10438675 -0.24555276 4.9547176 -4.250339 7.1471763 0.875 0.5
0.57288116 -0.10865883 -0.39599714 -13.32231 -83.04327 -5.6925907 0.125 0.75
0.4933024 -0.0008899644 0.39599714 -13.84474 -65.15843 -6.079391 0.625 1
0.592437 -0.104386754 0.24555276 -4.9547153 4.2503347 7.1471815 0.875 0.5
0.5728811 -0.108658835 0.39599714 13.32231 83.04327 -5.6925907 0.125 0.75
3 0 1 2
3 0 3 4
3 4 5 6
3 7 8 6
3 9 6 10
3 11 7 3
3 12 13 14
3 7 14 3
3 4 14 15
3 6 12 7
3 13 16 17
3 15 13 17
3 5 18 12
3 15 16 5
3 19 20 21
3 8 22 23
3 11 24 25
3 10 26 9
3 27 28 29
3 27 30 31
3 31 32 33
3 34 35 33
3 36 33 37
3 38 34 30
3 39 40 41
3 34 41 30
3 31 41 42
3 33 39 34
3 40 43 44
3 42 40 44
3 32 45 39
3 42 43 32
3 46 47 48
3 35 49 50
3 38 51 52
3 37 53 36
3 0 20 1
3 0 2 3
3 4 15 5
3 7 54 8
3 9 4 6
3 11 25 7
3 12 18 13
3 7 12 14
3 4 3 14
3 6 5 12
3 13 18 16
3 15 14 13
3 5 16 18
3 15 17 16
3 19 1 20
3 8 54 22
3 11 55 24
3 10 56 26
3 27 47 28
3 27 29 30
3 31 42 32
3 34 57 35
3 36 31 33
3 38 52 34
3 39 45 40
3 34 39 41
3 31 30 41
3 33 32 39
3 40 45 43
3 42 41 40
3 32 43 45
3 42 44 43
3 46 28 47
3 35 57 49
3 38 58 51
3 37 59 53
