ply
format ascii 1.0
comment Created in Blender version 4.0.1
element vertex 30
property float x
property float y
property float z
property float nx
property float ny
property float nz
property float s
property float t
element face 28
property list uchar uint vertex_indices
end_header
0.27469045 -0.034911495 -0.12930954 2.4806688 -1.0431223 -2.0712776 0.375 0
0.2867241 0.064918034 0.10221816 2.437858 1.8230143 1.5051516 0.625 0.25
0.27469045 -0.034911495 0.12930954 2.4806688 -1.0431223 2.0712779 0.375 0.25
-0.115283854 -0.1459948 0.16718625 -0.50675553 -2.22002 2.5192702 0.375 0.41666666
-0.21068703 0.06316405 0.11146303 -1.8892792 2.22643 1.7336797 0.625 0.5
-0.29555035 -0.09628343 0.14100464 -2.611968 -0.9820521 1.935254 0.375 0.5
-0.29555035 -0.09628343 -0.14100464 -2.611968 -0.98205197 -1.935254 0.375 0.75
0.097252555 0.10246048 -0.1321594 0.3596881 2.572034 -2.187985 0.625 0.9166666
0.27469045 -0.034911495 -0.12930954 2.4806688 -1.0431223 -2.0712776 0.375 1
0.12209717 -0.1459948 -0.16718625 0.91293013 -2.242504 -2.3811233 0.375 0.9166666
-0.115283854 -0.1459948 -0.16718625 -0.5067556 -2.22002 -2.5192702 0.29166666 0.75
-0.115283854 -0.1459948 0.16718625 -0.50675553 -2.22002 2.5192702 0.29166666 0.5
0.2867241 0.064918034 0.10221816 2.437858 1.8230143 1.5051516 0.875 0.5
0.097252555 0.10246048 -0.1321594 0.3596881 2.572034 -2.187985 0.7916666 0.75
0.097252555 0.10246048 0.1321594 0.359688 2.572034 2.1879854 0.7916666 0.5
-0.09039524 0.10246048 0.1321594 -0.53631467 2.5669758 2.157548 0.7083333 0.5
-0.21068703 0.06316405 -0.11146303 -1.8892792 2.22643 -1.7336797 0.625 0.75
-0.09039524 0.10246048 -0.1321594 -0.5363147 2.5669758 -2.157548 0.7083333 0.75
0.12209717 -0.1459948 0.16718625 0.9129301 -2.2425036 2.3811233 0.20833333 0.5
0.27469045 -0.034911495 -0.12930954 2.4806688 -1.0431223 -2.0712776 0.125 0.75
0.27469045 -0.034911495 0.12930954 2.4806688 -1.0431223 2.0712779 0.125 0.5
0.12209717 -0.1459948 -0.16718625 0.91293013 -2.242504 -2.3811233 0.20833333 0.75
-0.115283854 -0.1459948 -0.16718625 -0.5067556 -2.22002 -2.5192702 0.375 0.8333333
-0.09039524 0.10246048 -0.1321594 -0.5363147 2.5669758 -2.157548 0.625 0.8333333
0.097252555 0.10246048 0.1321594 0.359688 2.572034 2.1879854 0.625 0.3333333
0.12209717 -0.1459948 0.16718625 0.9129301 -2.2425036 2.3811233 0.375 0.3333333
-0.09039524 0.10246048 0.1321594 -0.53631467 2.5669758 2.157548 0.625 0.41666666
0.2867241 0.064918034 -0.10221816 2.437858 1.8230143 -1.5051516 0.625 0
0.2867241 0.064918034 -0.10221816 2.437858 1.8230143 -1.5051516 0.625 1
0.2867241 0.064918034 -0.10221816 2.437858 1.8230143 -1.5051516 0.875 0.75
3 0 1 2
3 3 4 5
3 4 6 5
3 7 8 9
3 5 10 11
3 12 13 14
3 15 16 4
3 14 17 15
3 18 19 20
3 11 21 18
3 16 22 6
3 23 9 22
3 2 24 25
3 25 26 3
3 0 27 1
3 3 26 4
3 4 16 6
3 7 28 8
3 5 6 10
3 12 29 13
3 15 17 16
3 14 13 17
3 18 21 19
3 11 10 21
3 16 23 22
3 23 7 9
3 2 1 24
3 25 24 26
