ply
format ascii 1.0
comment Created in Blender version 4.0.1
element vertex 256
property float x
property float y
property float z
property float nx
property float ny
property float nz
property float s
property float t
element face 478
property list uchar uint vertex_indices
end_header
-0.080877185 0.026786318 -0.040088452 -14.701365 8.128312 -12.164881 0 0
-1.5953852e-07 0.01845076 -0.044543903 14.22194 5.777384 -13.94784 0 0
-0.080877185 0.01845076 -0.044543903 -14.702168 5.5985694 -13.516144 0 0
-0.080877185 6.932915e-08 0.048213974 -14.701365 1.3714147e-06 14.630576 0 0
-1.6022136e-07 0.009406148 0.047287554 14.221944 2.9452832 14.806942 0 0
-0.080877185 0.009406148 0.047287554 -14.702168 2.8541276 14.348661 0 0
-0.080877185 -0.04008838 0.02678625 -14.702169 -12.164209 8.127862 0 0
-1.635054e-07 -0.03409236 0.034092426 14.221944 -10.675211 10.675212 0 0
-0.080877185 -0.034092356 0.034092426 -14.702169 -10.344809 10.344809 0 0
-1.6022136e-07 0.009406148 -0.047287554 14.221945 2.945284 -14.806942 0 0
-0.080877185 0.009406148 -0.047287554 -14.701366 2.8542855 -14.349455 0 0
-1.5953852e-07 0.01845076 0.044543903 14.221938 5.777384 13.947842 0 0
-0.080877185 0.01845076 0.044543903 -14.701367 5.5988793 13.516889 0 0
-1.6295381e-07 -0.02678618 0.040088452 14.221942 -8.387462 12.552719 0 0
-0.080877185 -0.02678618 0.040088452 -14.7013645 -8.12831 12.164879 0 0
-1.609315e-07 6.897066e-08 -0.048213974 14.221943 -7.859088e-07 -15.097029 0 0
-0.080877185 6.932915e-08 -0.048213974 -14.701366 9.13803e-07 -14.630576 0 0
-0.080877185 0.026786318 0.040088452 -14.702167 8.127866 12.164209 0 0
-1.589092e-07 0.026786318 0.040088452 14.221945 8.387457 12.55272 0 0
-1.6232448e-07 -0.018450622 0.044543903 14.221939 -5.7773848 13.947837 0 0
-0.080877185 -0.018450622 0.044543903 -14.701364 -5.5988765 13.51689 0 0
-1.6164164e-07 -0.009406011 -0.047287554 14.221945 -2.9452846 -14.80694 0 0
-0.080877185 -0.009406011 -0.047287554 -14.701365 -2.8542836 -14.349452 0 0
-1.583576e-07 0.034092497 0.034092426 14.221943 10.675211 10.675207 0 0
-0.080877185 0.034092497 0.034092426 -14.7013645 10.34538 10.34538 0 0
-1.6164164e-07 -0.009406011 0.047287554 14.221945 -2.9452863 14.806942 0 0
-0.080877185 -0.009406011 0.047287554 -14.701364 -2.8542826 14.349452 0 0
-1.6232448e-07 -0.018450622 -0.044543903 14.221939 -5.7773848 -13.947841 0 0
-0.080877185 -0.018450622 -0.044543903 -14.701366 -5.5988784 -13.516891 0 0
-1.579049e-07 0.04008852 0.02678625 14.221944 12.552722 8.387457 0 0
-0.080877185 0.040088527 0.02678625 -14.702501 12.163929 8.127677 0 0
-1.609315e-07 6.897066e-08 0.048213974 14.221942 -1.3615448e-06 15.097029 0 0
-1.6295381e-07 -0.02678618 -0.040088452 14.221942 -8.38746 -12.552719 0 0
-0.080877185 -0.02678618 -0.040088452 -14.702169 -8.127865 -12.164207 0 0
-0.080877185 0.044543974 0.01845069 -14.7013645 13.516892 5.5988765 0 0
-1.5756854e-07 0.04454397 0.01845069 14.221941 13.947835 5.7773886 0 0
-1.635054e-07 -0.03409236 -0.034092426 14.221944 -10.675212 -10.67521 0 0
-0.080877185 -0.034092356 -0.034092426 -14.702169 -10.344808 -10.3448105 0 0
-1.5736138e-07 0.047287624 0.009406079 14.221944 14.80694 2.94529 0 0
-0.080877185 0.047287624 0.009406079 -14.701365 14.349452 2.8542845 0 0
-1.6395809e-07 -0.040088385 -0.02678625 14.221941 -12.552722 -8.387461 0 0
-0.080877185 -0.04008838 -0.02678625 -14.701367 -12.164877 -8.128312 0 0
-0.080877185 0.048214044 -7.184442e-10 -14.701365 14.630578 -3.0507454e-08 0 0
-1.5729145e-07 0.048214044 -7.184442e-10 14.221943 15.097027 0 0 0
-0.080877185 -0.044543833 -0.01845069 -14.7013645 -13.516892 -5.598877 0 0
-1.6429448e-07 -0.044543833 -0.01845069 14.221939 -13.94784 -5.7773843 0 0
-1.5736138e-07 0.047287624 -0.0094060805 14.221945 14.806941 -2.945285 0 0
-0.080877185 0.047287624 -0.0094060805 -14.701365 14.349453 -2.8542898 0 0
-1.6450161e-07 -0.047287486 -0.0094060805 14.221946 -14.806942 -2.9452853 0 0
-0.080877185 -0.047287483 -0.0094060805 -14.7013645 -14.349451 -2.8542895 0 0
-1.5756854e-07 0.04454397 -0.01845069 14.221939 13.947839 -5.7773843 0 0
-0.080877185 0.044543974 -0.01845069 -14.702503 13.515836 -5.5984435 0 0
-1.6457156e-07 -0.048213907 -7.184442e-10 14.221938 -15.0970335 -5.756362e-07 0 0
-0.080877185 -0.04821391 -7.184442e-10 -14.701367 -14.630576 -2.4841785e-07 0 0
-1.579049e-07 0.04008852 -0.02678625 14.221944 12.552722 -8.387456 0 0
-0.080877185 0.040088527 -0.02678625 -14.701365 12.16488 -8.128312 0 0
-1.6450161e-07 -0.047287486 0.009406079 14.221944 -14.806941 2.945285 0 0
-0.080877185 -0.047287483 0.009406079 -14.7013645 -14.349453 2.8542905 0 0
-1.583576e-07 0.034092497 -0.034092426 14.221943 10.675214 -10.675206 0 0
-0.080877185 0.034092497 -0.034092426 -14.70217 10.344806 -10.344812 0 0
-1.6429448e-07 -0.044543833 0.01845069 14.221937 -13.947841 5.777384 0 0
-0.080877185 -0.044543833 0.01845069 -14.7013645 -13.516891 5.5988755 0 0
-1.589092e-07 0.026786318 -0.040088452 14.221944 8.38746 -12.552719 0 0
-1.6395809e-07 -0.040088385 0.02678625 14.221942 -12.552718 8.387463 0 0
-0.080877185 0.044543974 -0.01845069 -20.740873 1.4734178e-07 -1.5750783e-06 0 0
-0.080877185 0.047287624 -0.0094060805 -20.740873 2.473106e-07 -8.0296843e-07 0 0
-0.080877185 -0.04821391 -7.184442e-10 -20.740875 1.5658926e-06 1.2105864e-14 0 0
-0.080877185 -0.047287483 -0.0094060805 -20.740873 -1.3844824e-06 -8.02972e-07 0 0
-0.080877185 0.040088527 -0.02678625 -20.740875 -3.4258437e-06 -2.2864783e-06 0 0
-0.080877185 -0.047287483 0.009406079 -20.740873 4.883698e-07 8.0297195e-07 0 0
-0.080877185 0.034092497 -0.034092426 -20.740873 -2.476986e-08 -2.9103692e-06 0 0
-0.080877185 -0.044543833 0.01845069 -20.740875 4.2030624e-06 1.5750818e-06 0 0
-0.080877185 0.026786318 -0.040088452 -20.740875 5.7624634e-06 -3.4220373e-06 0 0
-0.080877185 -0.04008838 0.02678625 -20.740875 1.2837005e-06 2.2866645e-06 0 0
-0.080877185 0.01845076 -0.044543903 -20.740875 4.2340753e-06 -3.8025812e-06 0 0
-0.080877185 0.009406148 0.047287554 -20.740875 2.1046528e-06 4.0368e-06 0 0
-0.080877185 6.932915e-08 0.048213974 -20.740875 1.1618223e-06 4.1158864e-06 0 0
-0.080877185 -0.034092356 0.034092426 -20.740875 1.5658926e-06 2.9102068e-06 0 0
-0.080877185 0.009406148 -0.047287554 -20.740875 2.1046224e-06 -4.0365708e-06 0 0
-0.080877185 0.01845076 0.044543903 -20.740875 4.2339234e-06 3.8023652e-06 0 0
-0.080877185 -0.02678618 0.040088452 -20.740875 4.884323e-07 3.4220393e-06 0 0
-0.080877185 6.932915e-08 -0.048213974 -20.740875 1.1618223e-06 -4.115886e-06 0 0
-0.080877185 0.026786318 0.040088452 -20.740875 5.762701e-06 3.4222312e-06 0 0
-0.080877185 -0.018450622 0.044543903 -20.740875 1.0271319e-06 3.802582e-06 0 0
-0.080877185 -0.009406011 -0.047287554 -20.740875 1.9699633e-06 -4.0368e-06 0 0
-0.080877185 0.034092497 0.034092426 -20.740875 -2.467948e-08 2.9102039e-06 0 0
-0.080877185 -0.009406011 0.047287554 -20.740875 1.9699633e-06 4.0368e-06 0 0
-0.080877185 -0.018450622 -0.044543903 -20.740875 1.0271319e-06 -3.802582e-06 0 0
-0.080877185 0.040088527 0.02678625 -20.740875 -3.4262443e-06 2.2866616e-06 0 0
-0.080877185 -0.02678618 -0.040088452 -20.740875 4.8837114e-07 -3.4222335e-06 0 0
-0.080877185 0.044543974 0.01845069 -20.740875 -7.88894e-07 1.574952e-06 0 0
-0.080877185 -0.034092356 -0.034092426 -20.740875 1.5658926e-06 -2.9102068e-06 0 0
-0.080877185 0.047287624 0.009406079 -20.740873 -1.0712706e-06 8.0296843e-07 0 0
-0.080877185 -0.04008838 -0.02678625 -20.740875 1.5658926e-06 -2.286535e-06 0 0
-0.080877185 0.048214044 -7.184442e-10 -20.740875 1.5658926e-06 1.2105861e-14 0 0
-0.080877185 -0.044543833 -0.01845069 -20.740875 -1.0712755e-06 -1.575082e-06 0 0
-0.080877185 -0.024182651 -0.024182705 -15.137701 10.025814 10.025811 0 0
-0.080877185 0.03419957 -7.184442e-10 -15.1377 -14.178643 -3.733649e-06 0 0
-0.080877185 0.033542436 0.0066719935 -15.137704 -13.906199 -2.7661214 0 0
-0.080877185 -0.028435796 -0.01900023 -15.137699 11.789111 7.87723 0 0
-0.080877185 -0.031596173 -0.013087587 -15.137703 13.099356 5.4259334 0 0
-0.080877185 0.033542436 -0.0066719945 -15.137704 -13.906201 2.766115 0 0
-0.080877185 -0.034199458 -7.184442e-10 -15.137706 14.1786375 0 0 0
-0.080877185 -0.03354232 -0.0066719945 -15.137699 13.906203 2.766123 0 0
-0.080877185 0.031596284 -0.013087587 -15.137709 -13.09935 5.4259315 0 0
-0.080877185 0.028435908 -0.01900023 -15.137709 -11.7891 7.8772345 0 0
-0.080877185 -0.031596173 0.013087587 -15.137705 13.099352 -5.4259324 0 0
-0.080877185 -0.03354232 0.0066719935 -15.137701 13.906207 -2.76612 0 0
-0.080877185 0.024182763 -0.024182705 -15.137707 -10.025811 10.025812 0 0
-0.080877185 0.019000288 -0.028435854 -15.1377 -7.877239 11.789104 0 0
-0.080877185 0.006672051 0.033542376 -15.137703 -2.7661157 -13.906202 0 0
-0.080877185 5.639715e-08 0.034199513 -15.137703 2.6435907e-07 -14.178639 0 0
-0.080877185 -0.024182651 0.024182705 -15.137701 10.025818 -10.02581 0 0
-0.080877185 -0.028435796 0.01900023 -15.137705 11.7891035 -7.8772364 0 0
-0.080877185 0.013087646 -0.03159623 -15.137702 -5.425937 13.099355 0 0
-0.080877185 0.013087646 0.03159623 -15.137702 -5.425937 -13.099355 0 0
-0.080877185 -0.019000174 0.028435854 -15.137703 7.8772306 -11.789106 0 0
-0.080877185 0.006672051 -0.033542376 -15.137703 -2.7661166 13.906201 0 0
-0.080877185 0.019000288 0.028435854 -15.1377 -7.8772397 -11.789104 0 0
-0.080877185 -0.013087531 0.03159623 -15.137704 5.4259305 -13.099358 0 0
-0.080877185 5.639715e-08 -0.034199513 -15.137704 6.0224596e-07 14.178639 0 0
-0.080877185 0.024182763 0.024182705 -15.137707 -10.025815 -10.025809 0 0
-0.080877185 -0.006671938 0.033542376 -15.137702 2.7661214 -13.906201 0 0
-0.080877185 -0.006671938 -0.033542376 -15.137703 2.7661214 13.906202 0 0
-0.080877185 0.028435908 0.01900023 -15.137709 -11.789101 -7.877233 0 0
-0.080877185 -0.013087531 -0.03159623 -15.137706 5.425932 13.099357 0 0
-0.080877185 0.031596284 0.013087587 -15.137708 -13.099346 -5.425938 0 0
-0.080877185 -0.019000174 -0.028435854 -15.137705 7.8772287 11.789106 0 0
-0.06745827 -0.013087532 -0.03159623 -14.221943 5.7773833 13.947835 0 0
-0.06745827 -0.006671938 -0.033542376 -14.221945 2.9452868 14.806939 0 0
-0.06745827 0.024182763 0.024182705 -14.221932 -10.6752405 -10.675196 0 0
-0.06745827 -0.006671938 0.033542376 -14.221945 2.9452872 -14.80694 0 0
-0.06745827 0.028435908 0.01900023 -14.221966 -12.552689 -8.38747 0 0
-0.06745827 -0.019000173 -0.028435854 -14.221943 8.387458 12.55272 0 0
-0.06745827 0.03159628 0.013087587 -14.221949 -13.94783 -5.777377 0 0
-0.06745827 -0.024182651 -0.024182705 -14.2219515 10.675188 10.675217 0 0
-0.06745827 0.033542432 0.0066719935 -14.221971 -14.806916 -2.9452865 0 0
-0.06745827 -0.028435796 -0.01900023 -14.221908 12.552772 8.387439 0 0
-0.06745827 0.034199566 -7.184442e-10 -14.221946 -15.097026 4.029452e-06 0 0
-0.06745827 -0.031596176 -0.013087587 -14.221943 13.947836 5.7773824 0 0
-0.06745827 0.033542432 -0.0066719945 -14.221915 -14.806969 2.9452848 0 0
-0.06745827 -0.033542324 -0.0066719945 -14.221944 14.806943 2.9452872 0 0
-0.06745827 0.03159628 -0.013087587 -14.221974 -13.947798 5.777398 0 0
-0.06745827 -0.03419946 -7.184442e-10 -14.221939 15.097032 7.1954524e-08 0 0
-0.06745827 0.028435908 -0.01900023 -14.221943 -12.552723 8.387454 0 0
-0.06745827 -0.033542324 0.0066719935 -14.221971 14.806915 -2.9452944 0 0
-0.06745827 0.019000292 -0.028435854 -14.221945 -8.387453 12.552721 0 0
-0.06745827 0.024182763 -0.024182705 -14.22194 -10.675231 10.675196 0 0
-0.06745827 -0.031596176 0.013087587 -14.22195 13.947827 -5.7773848 0 0
-0.06745827 0.013087644 -0.03159623 -14.221942 -5.777396 13.947829 0 0
-0.06745827 5.6820937e-08 0.034199513 -14.221943 5.340681e-07 -15.097027 0 0
-0.06745827 -0.028435796 0.01900023 -14.221967 12.552689 -8.387469 0 0
-0.06745827 0.00667205 0.033542376 -14.221944 -2.9452844 -14.806941 0 0
-0.06745827 -0.024182651 0.024182705 -14.221927 10.675242 -10.6751995 0 0
-0.06745827 0.00667205 -0.033542376 -14.221943 -2.9452841 14.806941 0 0
-0.06745827 0.013087644 0.03159623 -14.221943 -5.777396 -13.947829 0 0
-0.06745827 -0.019000173 0.028435854 -14.221952 8.387435 -12.552726 0 0
-0.06745827 5.6820937e-08 -0.034199513 -14.221943 9.298178e-07 15.097027 0 0
-0.06745827 0.019000292 0.028435854 -14.2219515 -8.387436 -12.552725 0 0
-0.06745827 -0.013087532 0.03159623 -14.22194 5.777401 -13.947831 0 0
-0.06745827 -0.023165546 -0.0231656 -15.283131 -9.914897 -9.914874 0 0
-0.06745827 0.032131664 0.0063913753 -15.2831135 13.752359 2.7355025 0 0
-0.06745827 -0.030267263 -0.012537136 -15.283138 -12.954412 -5.365893 0 0
-0.06745827 -0.027239809 -0.018201096 -15.283182 -11.658586 -7.7901006 0 0
-0.06745827 0.03276116 -7.184442e-10 -15.283137 14.021752 -1.2967746e-07 0 0
-0.06745827 0.032131664 -0.006391376 -15.283167 13.752297 -2.7355113 0 0
-0.06745827 -0.03276106 -7.184442e-10 -15.283145 -14.021748 -4.019478e-06 0 0
-0.06745827 -0.03213156 -0.006391376 -15.283134 -13.752336 -2.7355149 0 0
-0.06745827 0.030267369 -0.012537136 -15.283104 12.954457 -5.36588 0 0
-0.06745827 0.027239917 -0.018201096 -15.283149 11.658646 -7.7900753 0 0
-0.06745827 -0.030267263 0.012537133 -15.283131 -12.954426 5.365886 0 0
-0.06745827 -0.03213156 0.0063913753 -15.283106 -13.752366 2.735506 0 0
-0.06745827 0.023165658 -0.0231656 -15.28315 9.91485 -9.914887 0 0
-0.06745827 -0.027239809 0.018201096 -15.283119 -11.65869 7.790062 0 0
-0.06745827 0.018201154 -0.027239867 -15.283139 7.790063 -11.658666 0 0
-0.06745827 5.538405e-08 0.032761108 -15.283138 4.097684e-07 14.021754 0 0
-0.06745827 0.012537189 -0.030267315 -15.28314 5.3658667 -12.954419 0 0
-0.06745827 0.012537189 0.030267315 -15.28314 5.365867 12.954419 0 0
-0.06745827 0.00639143 0.032131612 -15.283135 2.7355127 13.752331 0 0
-0.06745827 -0.01820104 0.027239867 -15.28313 -7.790085 11.658664 0 0
-0.06745827 -0.023165546 0.0231656 -15.283156 -9.914834 9.914891 0 0
-0.06745827 0.00639143 -0.032131612 -15.283135 2.7355146 -13.752334 0 0
-0.06745827 0.018201154 0.027239867 -15.28313 7.7900867 11.658661 0 0
-0.06745827 5.538405e-08 -0.032761108 -15.283139 2.3674793e-06 -14.021754 0 0
-0.06745827 -0.0063913213 0.032131612 -15.283135 -2.7355118 13.752334 0 0
-0.06745827 -0.012537079 0.030267315 -15.28314 -5.3658648 12.954419 0 0
-0.06745827 -0.0063913213 -0.032131612 -15.283135 -2.735511 -13.752334 0 0
-0.06745827 0.027239917 0.018201096 -15.283121 11.658694 7.790059 0 0
-0.06745827 0.023165658 0.0231656 -15.283155 9.914837 9.91489 0 0
-0.06745827 -0.012537079 -0.030267315 -15.283134 -5.3658943 -12.954415 0 0
-0.06745827 -0.01820104 -0.027239867 -15.283136 -7.790069 -11.658665 0 0
-0.06745827 0.030267369 0.012537133 -15.283134 12.954416 5.3658895 0 0
-0.36487558 -0.026090544 -0.005189741 -14.377151 -14.662046 -2.916471 0 0
-0.36487558 0.024576837 -0.010180043 -14.37713 13.811368 -5.7208548 0 0
-0.36487558 -0.026601693 -3.592221e-10 -14.377124 -14.94932 5.7925163e-06 0 0
-0.36487558 0.022118574 -0.014779133 -14.377117 12.429924 -8.305381 0 0
-0.36487558 -0.026090544 0.0051897396 -14.377133 -14.662065 2.9164724 0 0
-0.36487558 0.018810311 -0.018810265 -14.377133 10.570761 -10.570759 0 0
-0.36487558 -0.024576752 0.010180043 -14.377127 -13.81137 5.720862 0 0
-0.36487558 0.0147791775 -0.022118531 -14.377141 8.305367 -12.429907 0 0
-0.36487558 4.479e-08 0.026601732 -14.377134 1.8898116e-05 14.949311 0 0
-0.36487558 -0.022118485 0.01477913 -14.377143 -12.429879 8.305404 0 0
-0.36487558 0.010180088 -0.024576794 -14.377127 5.720897 -13.811353 0 0
-0.36487558 0.0051897853 0.026090585 -14.377145 2.9163997 14.662069 0 0
-0.36487558 -0.01881022 0.018810263 -14.377151 -10.570728 10.57077 0 0
-0.36487558 0.0051897853 -0.026090585 -14.377132 2.9165044 -14.66206 0 0
-0.36487558 0.010180088 0.024576794 -14.37713 5.7208843 13.811357 0 0
-0.36487558 -0.014779084 0.022118531 -14.377136 -8.305388 12.429898 0 0
-0.36487558 4.479e-08 -0.026601732 -14.377133 5.5788812e-05 -14.949313 0 0
-0.36487558 0.0147791775 0.022118531 -14.377126 8.305421 12.42989 0 0
-0.36487558 -0.010179998 0.024576794 -14.3771305 -5.7208776 13.811359 0 0
-0.36487558 -0.0051896963 -0.026090585 -14.377135 -2.9164765 -14.662063 0 0
-0.36487558 0.018810311 0.018810263 -14.377149 10.57074 10.570763 0 0
-0.36487558 -0.0051896963 0.026090585 -14.377138 -2.9164689 14.662063 0 0
-0.36487558 -0.010179998 -0.024576794 -14.3771305 -5.720875 -13.811361 0 0
-0.36487558 0.022118574 0.01477913 -14.377144 12.429887 8.305395 0 0
-0.36487558 -0.014779084 -0.022118531 -14.377147 -8.305361 -12.429907 0 0
-0.36487558 0.024576837 0.010180043 -14.377125 13.811371 5.720853 0 0
-0.36487558 -0.01881022 -0.018810265 -14.377124 -10.570779 -10.570754 0 0
-0.36487558 0.026090631 0.0051897396 -14.37713 14.662069 2.9164717 0 0
-0.36487558 -0.022118485 -0.014779133 -14.377115 -12.42993 -8.305381 0 0
-0.36487558 0.026601775 -3.592221e-10 -14.377136 14.949311 -3.4367724e-07 0 0
-0.36487558 -0.024576752 -0.010180043 -14.377146 -13.811349 -5.720862 0 0
-0.36487558 0.026090631 -0.005189741 -14.377168 14.66203 -2.9164803 0 0
-0.3648756 -0.015308696 0.006341081 -20.740875 -0.00012462401 3.638031e-05 0 0
-0.3648756 0.009205852 -0.01377749 -20.740873 4.5874564e-05 -7.904458e-05 0 0
-0.3648756 0.0032326828 0.016251653 -20.740875 8.320699e-05 9.323946e-05 0 0
-0.3648756 2.7547344e-08 0.016570045 -20.740875 3.6235182e-05 9.506618e-05 0 0
-0.3648756 -0.011716763 0.01171679 -20.740875 1.5658926e-06 6.7222034e-05 0 0
-0.3648756 -0.013777457 0.009205823 -20.740873 -4.2742944e-05 5.2816005e-05 0 0
-0.3648756 0.0063411077 -0.015308724 -20.740873 -1.2009465e-05 -8.782965e-05 0 0
-0.3648756 0.0063411077 0.015308721 -20.740875 7.921318e-05 8.7829634e-05 0 0
-0.3648756 -0.009205794 0.013777486 -20.740875 -0.00017566937 7.9044774e-05 0 0
-0.3648756 0.0032326828 -0.016251655 -20.740873 -0.00015807396 -9.323949e-05 0 0
-0.3648756 0.009205852 0.013777486 -20.740873 -5.4038428e-05 7.9044556e-05 0 0
-0.3648756 -0.0063410536 0.015308721 -20.740875 -5.620693e-05 8.7829765e-05 0 0
-0.3648756 2.7547344e-08 -0.016570045 -20.740875 -0.00012940611 -9.50662e-05 0 0
-0.3648756 0.011716818 0.01171679 -20.740873 2.806549e-05 6.7221845e-05 0 0
-0.3648756 -0.0032326279 0.016251653 -20.740875 9.602634e-06 9.323952e-05 0 0
-0.3648756 -0.0032326279 -0.016251655 -20.740875 -2.9167522e-05 -9.3239556e-05 0 0
-0.3648756 0.013777514 0.009205823 -20.740875 0.00010799239 5.281588e-05 0 0
-0.3648756 -0.0063410536 -0.015308724 -20.740875 6.802899e-05 -8.782978e-05 0 0
-0.3648756 0.015308752 0.006341081 -20.740875 0.00013774862 3.638024e-05 0 0
-0.3648756 -0.009205794 -0.01377749 -20.740873 3.2624805e-05 -7.9044745e-05 0 0
-0.3648756 0.016251683 0.0032326546 -20.740873 9.669654e-05 1.8546449e-05 0 0
-0.3648756 -0.011716763 -0.01171679 -20.740873 -4.925642e-05 -6.722198e-05 0 0
-0.3648756 -0.013777457 -0.009205824 -20.740875 -0.0001346172 -5.2816034e-05 0 0
-0.3648756 0.016570069 -3.592221e-10 -20.740873 1.8072365e-05 -1.23622276e-11 0 0
-0.3648756 -0.015308696 -0.006341082 -20.740875 -7.380185e-05 -3.6380345e-05 0 0
-0.3648756 0.016251683 -0.0032326558 -20.740875 0.00010929495 -1.8546447e-05 0 0
-0.3648756 -0.016570019 -3.592221e-10 -20.740875 -3.1447216e-05 1.059618e-12 0 0
-0.3648756 -0.016251625 -0.0032326558 -20.740873 -4.274294e-05 -1.854658e-05 0 0
-0.3648756 0.015308752 -0.006341082 -20.740875 0.0001807548 -3.638024e-05 0 0
-0.3648756 0.013777514 -0.009205824 -20.740875 6.6940345e-05 -5.2815863e-05 0 0
-0.3648756 -0.016251625 0.0032326546 -20.740875 -8.705177e-05 1.854658e-05 0 0
-0.3648756 0.011716818 -0.01171679 -20.740875 0.00016555078 -6.722184e-05 0 0
3 0 1 2
3 3 4 5
3 6 7 8
3 2 9 10
3 5 11 12
3 8 13 14
3 10 15 16
3 17 11 18
3 14 19 20
3 16 21 22
3 17 23 24
3 20 25 26
3 22 27 28
3 24 29 30
3 26 31 3
3 28 32 33
3 34 29 35
3 33 36 37
3 34 38 39
3 37 40 41
3 42 38 43
3 44 40 45
3 42 46 47
3 44 48 49
3 47 50 51
3 49 52 53
3 51 54 55
3 53 56 57
3 55 58 59
3 57 60 61
3 59 62 0
3 61 63 6
3 47 64 65
3 49 66 67
3 51 68 64
3 53 69 66
3 55 70 68
3 57 71 69
3 59 72 70
3 61 73 71
3 0 74 72
3 3 75 76
3 6 77 73
3 2 78 74
3 5 79 75
3 8 80 77
3 10 81 78
3 12 82 79
3 14 83 80
3 16 84 81
3 17 85 82
3 20 86 83
3 22 87 84
3 24 88 85
3 26 76 86
3 28 89 87
3 30 90 88
3 33 91 89
3 34 92 90
3 37 93 91
3 39 94 92
3 41 95 93
3 42 65 94
3 44 67 95
3 93 96 91
3 92 97 98
3 95 99 93
3 65 97 94
3 67 100 95
3 64 101 65
3 67 102 103
3 68 104 64
3 69 102 66
3 70 105 68
3 69 106 107
3 72 108 70
3 73 106 71
3 74 109 72
3 76 110 111
3 73 112 113
3 78 114 74
3 75 115 110
3 77 116 112
3 81 117 78
3 79 118 115
3 80 119 116
3 84 120 81
3 82 121 118
3 83 122 119
3 87 123 84
3 85 124 121
3 86 111 122
3 89 125 87
3 88 126 124
3 91 127 89
3 90 98 126
3 123 128 129
3 124 130 121
3 111 131 122
3 127 128 125
3 126 132 124
3 96 133 127
3 98 134 126
3 99 135 96
3 97 136 98
3 100 137 99
3 101 138 97
3 103 139 100
3 104 140 101
3 102 141 103
3 105 142 104
3 107 143 102
3 108 144 105
3 106 145 107
3 108 146 147
3 113 148 106
3 109 149 146
3 110 150 111
3 112 151 113
3 117 149 114
3 115 152 110
3 116 153 112
3 120 154 117
3 118 155 115
3 119 156 116
3 123 157 120
3 121 158 118
3 122 159 119
3 137 160 135
3 138 161 136
3 137 162 163
3 140 164 138
3 141 162 139
3 142 165 140
3 141 166 167
3 144 168 142
3 145 166 143
3 147 169 144
3 145 170 171
3 146 172 147
3 148 173 170
3 149 174 146
3 152 175 150
3 153 173 151
3 154 176 149
3 152 177 178
3 153 179 180
3 157 181 154
3 155 182 177
3 159 179 156
3 129 183 157
3 130 182 158
3 159 184 185
3 128 186 129
3 130 187 188
3 131 175 184
3 133 189 128
3 134 187 132
3 135 190 133
3 134 161 191
3 166 192 167
3 169 193 168
3 171 194 166
3 172 195 169
3 170 196 171
3 174 197 172
3 173 198 170
3 176 199 174
3 178 200 175
3 180 201 173
3 181 202 176
3 177 203 178
3 179 204 180
3 183 205 181
3 182 206 177
3 185 207 179
3 186 208 183
3 188 209 182
3 184 210 185
3 189 211 186
3 187 212 188
3 175 213 184
3 190 214 189
3 191 215 187
3 160 216 190
3 161 217 191
3 163 218 160
3 164 219 161
3 162 220 163
3 165 221 164
3 167 222 162
3 168 223 165
3 201 224 198
3 202 225 199
3 200 226 227
3 201 228 229
3 205 230 202
3 203 231 226
3 204 232 228
3 208 233 205
3 206 234 231
3 207 235 232
3 211 236 208
3 209 237 234
3 210 238 235
3 214 239 211
3 212 240 237
3 213 227 238
3 216 241 214
3 215 242 240
3 218 243 216
3 217 244 242
3 220 245 218
3 221 244 219
3 222 246 220
3 223 247 221
3 192 248 222
3 193 249 223
3 192 250 251
3 195 252 193
3 196 250 194
3 197 253 195
3 196 224 254
3 199 255 197
3 27 50 11
3 0 62 1
3 3 31 4
3 6 63 7
3 2 1 9
3 5 4 11
3 8 7 13
3 10 9 15
3 17 12 11
3 14 13 19
3 16 15 21
3 17 18 23
3 20 19 25
3 22 21 27
3 24 23 29
3 26 25 31
3 28 27 32
3 34 30 29
3 33 32 36
3 34 35 38
3 37 36 40
3 42 39 38
3 44 41 40
3 42 43 46
3 44 45 48
3 47 46 50
3 49 48 52
3 51 50 54
3 53 52 56
3 55 54 58
3 57 56 60
3 59 58 62
3 61 60 63
3 47 51 64
3 49 53 66
3 51 55 68
3 53 57 69
3 55 59 70
3 57 61 71
3 59 0 72
3 61 6 73
3 0 2 74
3 3 5 75
3 6 8 77
3 2 10 78
3 5 12 79
3 8 14 80
3 10 16 81
3 12 17 82
3 14 20 83
3 16 22 84
3 17 24 85
3 20 26 86
3 22 28 87
3 24 30 88
3 26 3 76
3 28 33 89
3 30 34 90
3 33 37 91
3 34 39 92
3 37 41 93
3 39 42 94
3 41 44 95
3 42 47 65
3 44 49 67
3 93 99 96
3 92 94 97
3 95 100 99
3 65 101 97
3 67 103 100
3 64 104 101
3 67 66 102
3 68 105 104
3 69 107 102
3 70 108 105
3 69 71 106
3 72 109 108
3 73 113 106
3 74 114 109
3 76 75 110
3 73 77 112
3 78 117 114
3 75 79 115
3 77 80 116
3 81 120 117
3 79 82 118
3 80 83 119
3 84 123 120
3 82 85 121
3 83 86 122
3 87 125 123
3 85 88 124
3 86 76 111
3 89 127 125
3 88 90 126
3 91 96 127
3 90 92 98
3 123 125 128
3 124 132 130
3 111 150 131
3 127 133 128
3 126 134 132
3 96 135 133
3 98 136 134
3 99 137 135
3 97 138 136
3 100 139 137
3 101 140 138
3 103 141 139
3 104 142 140
3 102 143 141
3 105 144 142
3 107 145 143
3 108 147 144
3 106 148 145
3 108 109 146
3 113 151 148
3 109 114 149
3 110 152 150
3 112 153 151
3 117 154 149
3 115 155 152
3 116 156 153
3 120 157 154
3 118 158 155
3 119 159 156
3 123 129 157
3 121 130 158
3 122 131 159
3 137 163 160
3 138 164 161
3 137 139 162
3 140 165 164
3 141 167 162
3 142 168 165
3 141 143 166
3 144 169 168
3 145 171 166
3 147 172 169
3 145 148 170
3 146 174 172
3 148 151 173
3 149 176 174
3 152 178 175
3 153 180 173
3 154 181 176
3 152 155 177
3 153 156 179
3 157 183 181
3 155 158 182
3 159 185 179
3 129 186 183
3 130 188 182
3 159 131 184
3 128 189 186
3 130 132 187
3 131 150 175
3 133 190 189
3 134 191 187
3 135 160 190
3 134 136 161
3 166 194 192
3 169 195 193
3 171 196 194
3 172 197 195
3 170 198 196
3 174 199 197
3 173 201 198
3 176 202 199
3 178 203 200
3 180 204 201
3 181 205 202
3 177 206 203
3 179 207 204
3 183 208 205
3 182 209 206
3 185 210 207
3 186 211 208
3 188 212 209
3 184 213 210
3 189 214 211
3 187 215 212
3 175 200 213
3 190 216 214
3 191 217 215
3 160 218 216
3 161 219 217
3 163 220 218
3 164 221 219
3 162 222 220
3 165 223 221
3 167 192 222
3 168 193 223
3 201 229 224
3 202 230 225
3 200 203 226
3 201 204 228
3 205 233 230
3 203 206 231
3 204 207 232
3 208 236 233
3 206 209 234
3 207 210 235
3 211 239 236
3 209 212 237
3 210 213 238
3 214 241 239
3 212 215 240
3 213 200 227
3 216 243 241
3 215 217 242
3 218 245 243
3 217 219 244
3 220 246 245
3 221 247 244
3 222 248 246
3 223 249 247
3 192 251 248
3 193 252 249
3 192 194 250
3 195 253 252
3 196 254 250
3 197 255 253
3 196 198 224
3 199 225 255
3 11 4 31
3 31 25 19
3 19 13 7
3 7 63 60
3 60 56 52
3 52 48 45
3 45 40 36
3 36 32 27
3 27 21 15
3 15 9 1
3 1 62 58
3 58 54 50
3 50 46 43
3 43 38 35
3 35 29 23
3 23 18 11
3 11 31 19
3 19 7 60
3 60 52 45
3 45 36 27
3 27 15 1
3 1 58 50
3 50 43 35
3 35 23 11
3 11 19 60
3 60 45 27
3 27 1 50
3 50 35 11
3 11 60 27
